<?xml version="1.0" encoding="UTF-8" standalone="no"?>
<!-- Created with Inkscape (http://www.inkscape.org/) -->

<svg
   xmlns:sketch="http://www.bohemiancoding.com/sketch/ns"
   xmlns:dc="http://purl.org/dc/elements/1.1/"
   xmlns:cc="http://creativecommons.org/ns#"
   xmlns:rdf="http://www.w3.org/1999/02/22-rdf-syntax-ns#"
   xmlns:svg="http://www.w3.org/2000/svg"
   xmlns="http://www.w3.org/2000/svg"
   xmlns:sodipodi="http://sodipodi.sourceforge.net/DTD/sodipodi-0.dtd"
   xmlns:inkscape="http://www.inkscape.org/namespaces/inkscape"
   width="48"
   height="48"
   id="svg2"
   version="1.1"
   inkscape:version="0.48.4 r9939"
   sodipodi:docname="da$$$.svg"
   inkscape:export-filename="/home/hacko/Projects/git/mishkal/ar/images/print.png"
   inkscape:export-xdpi="90"
   inkscape:export-ydpi="90">
  <defs
     id="defs4" />
  <sodipodi:namedview
     id="base"
     pagecolor="#ffffff"
     bordercolor="#666666"
     borderopacity="1.0"
     inkscape:pageopacity="0.0"
     inkscape:pageshadow="2"
     inkscape:zoom="14.481547"
     inkscape:cx="30.895461"
     inkscape:cy="21.475545"
     inkscape:document-units="px"
     inkscape:current-layer="g3903"
     showgrid="false"
     inkscape:snap-bbox="true"
     inkscape:snap-page="true"
     inkscape:window-width="1366"
     inkscape:window-height="715"
     inkscape:window-x="0"
     inkscape:window-y="27"
     inkscape:window-maximized="1" />
  <metadata
     id="metadata7">
    <rdf:RDF>
      <cc:Work
         rdf:about="">
        <dc:format>image/svg+xml</dc:format>
        <dc:type
           rdf:resource="http://purl.org/dc/dcmitype/StillImage" />
        <dc:title></dc:title>
      </cc:Work>
    </rdf:RDF>
  </metadata>
  <g
     inkscape:label="Layer 1"
     inkscape:groupmode="layer"
     id="layer1"
     transform="translate(0,-1004.3622)">
    <flowRoot
       xml:space="preserve"
       id="flowRoot2985"
       style="font-size:40px;font-style:normal;font-weight:normal;line-height:125%;letter-spacing:0px;word-spacing:0px;fill:#000000;fill-opacity:1;stroke:none;font-family:Sans"><flowRegion
         id="flowRegion2987"><rect
           id="rect2989"
           width="157.5838"
           height="115.15739"
           x="157.5838"
           y="264.44321" /></flowRegion><flowPara
         id="flowPara2991" /></flowRoot>    <g
       id="g3903"
       transform="matrix(1,0,0,-1,-0.35932921,2056.7244)"
       inkscape:export-filename="/home/hacko/Projects/git/mishkal (copy)/ar/images/kasra.png"
       inkscape:export-xdpi="90"
       inkscape:export-ydpi="90">
      <path
         sketch:type="MSShapeGroup"
         id="path5724"
         d="m 0.71865842,1028.3622 c 0,-13.2548 10.58428758,-24 23.64067158,-24 13.056382,0 23.64067,10.7452 23.64067,24 0,13.2548 -10.584288,24 -23.64067,24 -13.056384,0 -23.64067158,-10.7452 -23.64067158,-24 z m 0,0"
         inkscape:connector-curvature="0"
         style="fill:#aa0044;stroke:none" />
      <g
         style="fill:#000000"
         id="g3171"
         transform="matrix(1,0,0,-1,-245.83509,1286.4644)">
        <path
           id="path3163"
           d="m 279.05247,245.97938 -20.91969,0 0,23.90822 23.90822,0 0,-20.91969 -2.98853,-2.98853 z m -8.96558,2.98853 2.98852,0 0,5.97706 -2.98852,0 0,-5.97706 z m 8.96558,17.93116 -17.93116,0 0,-17.93116 1.49427,0 0,7.47131 13.44837,0 0,-7.47131 1.75057,0 1.23795,1.23786 0,16.6933 z"
           inkscape:connector-curvature="0"
           style="fill:#ffffff" />
      </g>
      <path
         sketch:type="MSShapeGroup"
         id="reflec-8"
         d="m 48,1028.3622 c 0,13.2548 -10.584288,24 -23.64067,24 -4.842304,0 -9.344572,-1.478 -13.092876,-4.0138 L 38.35463,1009.0177 C 44.204149,1013.3867 48,1020.4244 48,1028.3622 z m 0,0"
         inkscape:connector-curvature="0"
         style="fill:#000000;fill-opacity:0.07999998;stroke:none" />
    </g>
  </g>
</svg>
