<?xml version="1.0" encoding="UTF-8" standalone="no"?>
<!-- Created with Inkscape (http://www.inkscape.org/) -->

<svg
   xmlns:sketch="http://www.bohemiancoding.com/sketch/ns"
   xmlns:dc="http://purl.org/dc/elements/1.1/"
   xmlns:cc="http://creativecommons.org/ns#"
   xmlns:rdf="http://www.w3.org/1999/02/22-rdf-syntax-ns#"
   xmlns:svg="http://www.w3.org/2000/svg"
   xmlns="http://www.w3.org/2000/svg"
   xmlns:sodipodi="http://sodipodi.sourceforge.net/DTD/sodipodi-0.dtd"
   xmlns:inkscape="http://www.inkscape.org/namespaces/inkscape"
   width="48"
   height="48"
   id="svg2"
   version="1.1"
   inkscape:version="0.48.4 r9939"
   sodipodi:docname="zoomout.svg"
   inkscape:export-filename="/home/hacko/Projects/git/mishkal/ar/images/zoomin.png"
   inkscape:export-xdpi="90"
   inkscape:export-ydpi="90">
  <defs
     id="defs4" />
  <sodipodi:namedview
     id="base"
     pagecolor="#ffffff"
     bordercolor="#666666"
     borderopacity="1.0"
     inkscape:pageopacity="0.0"
     inkscape:pageshadow="2"
     inkscape:zoom="1.8101934"
     inkscape:cx="0.0045262557"
     inkscape:cy="12.839069"
     inkscape:document-units="px"
     inkscape:current-layer="g3191"
     showgrid="false"
     inkscape:snap-bbox="true"
     inkscape:snap-page="true"
     inkscape:window-width="1366"
     inkscape:window-height="715"
     inkscape:window-x="0"
     inkscape:window-y="27"
     inkscape:window-maximized="1" />
  <metadata
     id="metadata7">
    <rdf:RDF>
      <cc:Work
         rdf:about="">
        <dc:format>image/svg+xml</dc:format>
        <dc:type
           rdf:resource="http://purl.org/dc/dcmitype/StillImage" />
        <dc:title></dc:title>
      </cc:Work>
    </rdf:RDF>
  </metadata>
  <g
     inkscape:label="Layer 1"
     inkscape:groupmode="layer"
     id="layer1"
     transform="translate(0,-1004.3622)">
    <flowRoot
       xml:space="preserve"
       id="flowRoot2985"
       style="font-size:40px;font-style:normal;font-weight:normal;line-height:125%;letter-spacing:0px;word-spacing:0px;fill:#000000;fill-opacity:1;stroke:none;font-family:Sans"><flowRegion
         id="flowRegion2987"><rect
           id="rect2989"
           width="157.5838"
           height="115.15739"
           x="157.5838"
           y="264.44321" /></flowRegion><flowPara
         id="flowPara2991" /></flowRoot>    <path
       style="fill:#aa0044;stroke:none"
       inkscape:connector-curvature="0"
       d="m 0.35932921,1028.3622 c 0,13.2548 10.58428779,24 23.64067179,24 13.056382,0 23.64067,-10.7452 23.64067,-24 0,-13.2548 -10.584288,-24 -23.64067,-24 -13.056384,0 -23.64067179,10.7452 -23.64067179,24 z m 0,0"
       id="path5724"
       sketch:type="MSShapeGroup" />
    <g
       style="fill:#ffffff"
       id="g3064"
       transform="matrix(0.06041516,0,0,0.06041516,11.191327,1014.7075)" />
    <g
       style="fill:#ffffff"
       id="g3191"
       transform="matrix(0.05301961,0,0,0.05301961,10.695122,1014.4951)">
      <g
         style="fill:#ffffff"
         id="g3337"
         transform="matrix(15.909816,0,0,15.909816,-3824.1339,-4068.6341)">
        <path
           id="path3329"
           d="m 267.84984,277.16648 c -1.42831,-1.42525 -3.24519,-2.16096 -4.94144,-2.16096 l -0.91079,0 -1.99927,-2.00253 7.99723,-8.01031 c 1.99928,-2.0026 1.99928,-6.00773 0,-8.01032 L 255.99971,268.9978 244.0038,256.98242 c -1.99928,2.00253 -1.99928,6.00772 0,8.01031 l 7.9973,8.01019 -1.99934,2.00253 -0.91085,0 c -1.69631,0 -3.51313,0.73578 -4.94151,2.16109 -2.55359,2.54797 -2.89861,6.33484 -0.77056,8.45808 0.93763,0.9355 2.199,1.39202 3.53515,1.39202 1.69619,0 3.51307,-0.73565 4.94144,-2.16096 1.67641,-1.67265 2.40093,-3.87942 2.09877,-5.79873 l 2.04558,-2.04884 2.04533,2.04884 c -0.30209,1.91931 0.42255,4.12601 2.09876,5.79873 1.42857,1.42531 3.24533,2.16096 4.94151,2.16096 1.33615,0 2.59746,-0.45652 3.53509,-1.39208 2.12805,-2.12323 1.78291,-5.91011 -0.77063,-8.45808 z m -16.82385,4.26687 c -0.24084,0.55944 -0.59474,1.07453 -1.05202,1.53068 -0.45789,0.45689 -0.97523,0.81085 -1.53762,1.05194 -0.5047,0.21638 -1.03118,0.33063 -1.52242,0.33063 -0.47385,0 -1.14544,-0.10643 -1.65382,-0.61357 -0.50483,-0.50383 -0.6107,-1.16752 -0.6107,-1.63587 0,-0.48624 0.11394,-1.00771 0.32931,-1.50834 0.2409,-0.55951 0.59487,-1.07454 1.05201,-1.53069 0.45784,-0.45695 0.97524,-0.81073 1.5377,-1.05194 0.50475,-0.21631 1.03117,-0.33063 1.52248,-0.33063 0.47385,0 1.14543,0.10637 1.6537,0.61364 0.50476,0.50363 0.61075,1.16745 0.61075,1.63574 7e-5,0.48624 -0.11382,1.0079 -0.32937,1.50841 z m 4.97379,-5.59833 c -1.56159,0 -2.82747,-1.26807 -2.82747,-2.83216 0,-1.56403 1.26588,-2.83197 2.82747,-2.83197 1.56159,0 2.82735,1.26794 2.82735,2.83197 0,1.56422 -1.26582,2.83216 -2.82735,2.83216 z m 10.73936,7.89794 c -0.50833,0.50708 -1.17985,0.61358 -1.65376,0.61358 -0.49131,0 -1.01772,-0.11426 -1.52254,-0.33063 -0.56227,-0.24109 -1.07961,-0.59505 -1.53744,-1.05195 -0.45722,-0.45614 -0.81112,-0.97117 -1.05201,-1.53068 -0.21544,-0.50051 -0.32932,-1.02216 -0.32932,-1.50834 0,-0.46822 0.10587,-1.13217 0.61069,-1.63581 0.50828,-0.50707 1.17985,-0.61363 1.65377,-0.61363 0.49118,0 1.01772,0.11431 1.52236,0.33062 0.56245,0.24116 1.07985,0.595 1.53768,1.05195 0.45709,0.45615 0.81105,0.97117 1.05201,1.53069 0.21538,0.50051 0.32932,1.0221 0.32932,1.50834 -6e-5,0.46834 -0.10606,1.1321 -0.61076,1.63586 z"
           inkscape:connector-curvature="0"
           style="fill:#ffffff" />
      </g>
    </g>
    <path
       style="fill:#000000;fill-opacity:0.07999998;stroke:none"
       inkscape:connector-curvature="0"
       d="m 47.640671,1028.3622 c 0,-13.2548 -10.584288,-24 -23.64067,-24 -4.842304,0 -9.344572,1.478 -13.092876,4.0138 l 27.088176,39.3307 c 5.849519,-4.369 9.64537,-11.4067 9.64537,-19.3445 z m 0,0"
       id="reflec-8"
       sketch:type="MSShapeGroup" />
  </g>
</svg>
