<?xml version="1.0" encoding="UTF-8" standalone="no"?>
<!-- Created with Inkscape (http://www.inkscape.org/) -->

<svg
   xmlns:sketch="http://www.bohemiancoding.com/sketch/ns"
   xmlns:dc="http://purl.org/dc/elements/1.1/"
   xmlns:cc="http://creativecommons.org/ns#"
   xmlns:rdf="http://www.w3.org/1999/02/22-rdf-syntax-ns#"
   xmlns:svg="http://www.w3.org/2000/svg"
   xmlns="http://www.w3.org/2000/svg"
   xmlns:sodipodi="http://sodipodi.sourceforge.net/DTD/sodipodi-0.dtd"
   xmlns:inkscape="http://www.inkscape.org/namespaces/inkscape"
   width="48"
   height="48"
   id="svg2"
   version="1.1"
   inkscape:version="0.48.4 r9939"
   sodipodi:docname="dammatan.svg"
   inkscape:export-filename="/home/hacko/Projects/git/mishkal (copy)/ar/images/dammatan.png"
   inkscape:export-xdpi="90"
   inkscape:export-ydpi="90">
  <defs
     id="defs4" />
  <sodipodi:namedview
     id="base"
     pagecolor="#ffffff"
     bordercolor="#666666"
     borderopacity="1.0"
     inkscape:pageopacity="0.0"
     inkscape:pageshadow="2"
     inkscape:zoom="1.28"
     inkscape:cx="90.812261"
     inkscape:cy="-69.708568"
     inkscape:document-units="px"
     inkscape:current-layer="layer1"
     showgrid="false"
     inkscape:snap-bbox="true"
     inkscape:snap-page="true"
     inkscape:window-width="1366"
     inkscape:window-height="715"
     inkscape:window-x="0"
     inkscape:window-y="27"
     inkscape:window-maximized="1" />
  <metadata
     id="metadata7">
    <rdf:RDF>
      <cc:Work
         rdf:about="">
        <dc:format>image/svg+xml</dc:format>
        <dc:type
           rdf:resource="http://purl.org/dc/dcmitype/StillImage" />
        <dc:title />
      </cc:Work>
    </rdf:RDF>
  </metadata>
  <g
     inkscape:label="Layer 1"
     inkscape:groupmode="layer"
     id="layer1"
     transform="translate(0,-1004.3622)">
    <flowRoot
       xml:space="preserve"
       id="flowRoot2985"
       style="font-size:40px;font-style:normal;font-weight:normal;line-height:125%;letter-spacing:0px;word-spacing:0px;fill:#000000;fill-opacity:1;stroke:none;font-family:Sans"><flowRegion
         id="flowRegion2987"><rect
           id="rect2989"
           width="157.5838"
           height="115.15739"
           x="157.5838"
           y="264.44321" /></flowRegion><flowPara
         id="flowPara2991" /></flowRoot>    <g
       id="g3903"
       transform="translate(-0.35932921,0)"
       inkscape:export-filename="/home/hacko/Projects/git/mishkal (copy)/ar/images/dammatan.png"
       inkscape:export-xdpi="90"
       inkscape:export-ydpi="90">
      <path
         sketch:type="MSShapeGroup"
         id="path5724"
         d="m 0.71865842,1028.3622 c 0,-13.2548 10.58428758,-24 23.64067158,-24 13.056382,0 23.64067,10.7452 23.64067,24 0,13.2548 -10.584288,24 -23.64067,24 -13.056384,0 -23.64067158,-10.7452 -23.64067158,-24 z m 0,0"
         inkscape:connector-curvature="0"
         style="fill:#333333;stroke:none;fill-opacity:1"
         inkscape:export-filename="/home/hacko/Projects/git/mishkal (copy)/ar/images/damma.png"
         inkscape:export-xdpi="90"
         inkscape:export-ydpi="90" />
      <path
         sodipodi:nodetypes="cscsccscsccscscccccccscsccsssccsssc"
         d="m 37.294992,1037.6698 c -4.2e-5,1.1679 -0.560564,1.7517 -1.681579,1.7517 -1.214494,0 -1.82174,-0.5838 -1.821699,-1.7517 -4.1e-5,-1.1677 0.607205,-1.7516 1.821699,-1.7516 1.121015,0 1.681537,0.5839 1.681579,1.7516 m -5.184856,-3.4332 c -2.8e-5,1.1445 -0.56055,1.7167 -1.681565,1.7167 -1.214508,0 -1.821741,-0.5722 -1.821713,-1.7167 -2.8e-5,-1.1911 0.607205,-1.7866 1.821713,-1.7866 1.121015,0 1.681537,0.5955 1.681565,1.7866 m 8.653093,8.6181 c -3.7e-5,1.1911 -0.595594,1.7866 -1.786672,1.7866 -1.144434,0 -1.716644,-0.5955 -1.716602,-1.7866 -4.2e-5,-1.1443 0.595517,-1.7166 1.786675,-1.7166 1.14436,0 1.716562,0.5723 1.716599,1.7166 m -14.748799,-9.9143 c -1.4e-5,1.1912 -0.583898,1.7868 -1.751625,1.7866 -1.167782,2e-4 -1.751666,-0.5954 -1.751638,-1.7866 -2.8e-5,-1.1443 0.583856,-1.7165 1.751638,-1.7166 1.167727,10e-5 1.751611,0.5723 1.751625,1.7166 m -6.060654,1.2962 c -2.8e-5,1.1445 -0.595573,1.7167 -1.786676,1.7167 -1.14442,0 -1.716616,-0.5722 -1.716602,-1.7167 -1.4e-5,-1.1911 0.572182,-1.7866 1.716602,-1.7866 1.191103,0 1.786648,0.5955 1.786676,1.7866 m -5.184856,3.4332 c -1.4e-5,1.1679 -0.583885,1.7517 -1.751639,1.7517 -1.167768,0 -1.75164,-0.5488 -1.75164,-1.6465 0,-1.2379 0.583872,-1.8568 1.75164,-1.8568 1.167754,0 1.751625,0.5839 1.751639,1.7516 m -3.468242,5.1849 c -1.4e-5,1.1911 -0.560535,1.7866 -1.6815788,1.7866 -1.214465,0 -1.821698,-0.5955 -1.821698,-1.7866 0,-1.1443 0.58387,-1.7166 1.751638,-1.7166 1.1677548,0 1.7516248,0.5723 1.7516388,1.7166"
         style="font-size:40px;font-style:normal;font-variant:normal;font-weight:normal;font-stretch:normal;line-height:125%;letter-spacing:0px;word-spacing:0px;fill:#ffffff;fill-opacity:1;stroke:none;font-family:Droid Arabic Naskh;-inkscape-font-specification:Droid Arabic Naskh"
         id="path3876"
         inkscape:connector-curvature="0"
         inkscape:export-filename="/home/hacko/Projects/git/mishkal (copy)/ar/images/fatha.png"
         inkscape:export-xdpi="90"
         inkscape:export-ydpi="90" />
      <path
         sketch:type="MSShapeGroup"
         id="reflec-8"
         d="m 48,1028.3622 c 0,13.2548 -10.584288,24 -23.64067,24 -4.842304,0 -9.344572,-1.478 -13.092876,-4.0138 L 38.35463,1009.0177 C 44.204149,1013.3867 48,1020.4244 48,1028.3622 z m 0,0"
         inkscape:connector-curvature="0"
         style="fill:#000000;fill-opacity:0.07999998;stroke:none"
         inkscape:export-filename="/home/hacko/Projects/git/mishkal (copy)/ar/images/fatha.png"
         inkscape:export-xdpi="90"
         inkscape:export-ydpi="90" />
    </g>
    <path
       inkscape:connector-curvature="0"
       id="path3878"
       style="font-size:40px;font-style:normal;font-variant:normal;font-weight:normal;font-stretch:normal;line-height:125%;letter-spacing:0px;word-spacing:0px;fill:#ffffff;fill-opacity:1;stroke:none;font-family:Droid Arabic Naskh;-inkscape-font-specification:Droid Arabic Naskh"
       d="m 20.366253,1028.9737 c -0.131078,0 -0.578921,-0.2839 -1.343532,-0.852 -0.764612,-0.568 -1.146917,-0.9175 -1.146919,-1.0486 l 0.06555,-0.3277 c 0.218462,-0.9831 0.327691,-1.7476 0.32769,-2.2939 1e-6,-0.5023 -0.08739,-0.8737 -0.262151,-1.1141 -0.196614,-0.2402 -0.415075,-0.3604 -0.655382,-0.3604 -0.305844,0 -0.677226,0.1092 -1.11415,0.3277 -0.458763,0.1967 -1.190606,0.5352 -2.195528,1.0158 l -0.851997,-0.9831 c 1.048615,-1.3763 2.020763,-2.3702 2.916448,-2.9819 0.89569,-0.6116 1.638456,-0.9175 2.228298,-0.9175 0.895689,0 1.540147,0.3386 1.933376,1.0158 0.415074,0.6773 0.622612,1.5183 0.622613,2.5232 -10e-7,0.852 -0.131078,1.7258 -0.393229,2.6215 2.490446,-0.5898 4.500283,-1.4855 6.029512,-2.6871 -1.092309,-0.4806 -1.987997,-1.125 -2.687065,-1.9333 -0.699078,-0.8302 -1.048614,-1.7696 -1.048612,-2.8182 -2e-6,-0.983 0.283996,-1.9442 0.851997,-2.8836 0.589839,-0.9613 1.343527,-1.7368 2.261068,-2.3266 0.917526,-0.5899 1.80229,-0.8848 2.654296,-0.8848 1.004907,0 1.824134,0.5679 2.457681,1.704 0.633524,1.1141 0.950291,2.6653 0.950304,4.6531 -1.3e-5,1.0269 -0.131091,1.8789 -0.393229,2.5561 1.004905,0.131 2.031668,0.1967 3.080294,0.1965 -0.109252,1.0269 -0.480629,1.7368 -1.11415,2.1301 -0.633548,0.3714 -1.605697,0.557 -2.916448,0.557 l -1.343532,-0.131 c -1.463695,1.4637 -3.091225,2.7089 -4.882595,3.7357 -1.79138,1.0049 -3.134911,1.5073 -4.030598,1.5073 m 4.817057,-12.2228 c -7e-6,1.6166 1.277987,2.829 3.833983,3.6374 0.305834,-0.5462 0.458757,-1.136 0.458766,-1.7696 -9e-6,-1.0049 -0.196624,-1.8242 -0.589842,-2.4577 -0.393239,-0.6334 -0.906622,-0.9503 -1.540148,-0.9503 -0.502467,0 -0.994002,0.1748 -1.474608,0.5243 -0.458774,0.3496 -0.688158,0.6883 -0.688151,1.0159"
       inkscape:export-filename="/home/hacko/Projects/git/mishkal (copy)/ar/images/dammatan.png"
       inkscape:export-xdpi="90"
       inkscape:export-ydpi="90" />
  </g>
</svg>
