<?xml version="1.0" encoding="UTF-8" standalone="no"?>
<!-- Created with Inkscape (http://www.inkscape.org/) -->

<svg
   xmlns:sketch="http://www.bohemiancoding.com/sketch/ns"
   xmlns:dc="http://purl.org/dc/elements/1.1/"
   xmlns:cc="http://creativecommons.org/ns#"
   xmlns:rdf="http://www.w3.org/1999/02/22-rdf-syntax-ns#"
   xmlns:svg="http://www.w3.org/2000/svg"
   xmlns="http://www.w3.org/2000/svg"
   xmlns:sodipodi="http://sodipodi.sourceforge.net/DTD/sodipodi-0.dtd"
   xmlns:inkscape="http://www.inkscape.org/namespaces/inkscape"
   width="48"
   height="48"
   id="svg2"
   version="1.1"
   inkscape:version="0.48.4 r9939"
   sodipodi:docname="zwnj.svg"
   inkscape:export-filename="/home/hacko/Projects/git/mishkal/ar/images/zwnj.png"
   inkscape:export-xdpi="90"
   inkscape:export-ydpi="90">
  <defs
     id="defs4" />
  <sodipodi:namedview
     id="base"
     pagecolor="#ffffff"
     bordercolor="#666666"
     borderopacity="1.0"
     inkscape:pageopacity="0.0"
     inkscape:pageshadow="2"
     inkscape:zoom="4.160951"
     inkscape:cx="122.50547"
     inkscape:cy="4.8176631"
     inkscape:document-units="px"
     inkscape:current-layer="flowRoot4036"
     showgrid="false"
     inkscape:snap-bbox="true"
     inkscape:snap-page="true"
     inkscape:window-width="1366"
     inkscape:window-height="715"
     inkscape:window-x="0"
     inkscape:window-y="27"
     inkscape:window-maximized="1" />
  <metadata
     id="metadata7">
    <rdf:RDF>
      <cc:Work
         rdf:about="">
        <dc:format>image/svg+xml</dc:format>
        <dc:type
           rdf:resource="http://purl.org/dc/dcmitype/StillImage" />
        <dc:title></dc:title>
      </cc:Work>
    </rdf:RDF>
  </metadata>
  <g
     inkscape:label="Layer 1"
     inkscape:groupmode="layer"
     id="layer1"
     transform="translate(0,-1004.3622)">
    <flowRoot
       xml:space="preserve"
       id="flowRoot2985"
       style="font-size:40px;font-style:normal;font-weight:normal;line-height:125%;letter-spacing:0px;word-spacing:0px;fill:#000000;fill-opacity:1;stroke:none;font-family:Sans"><flowRegion
         id="flowRegion2987"><rect
           id="rect2989"
           width="157.5838"
           height="115.15739"
           x="157.5838"
           y="264.44321" /></flowRegion><flowPara
         id="flowPara2991" /></flowRoot>    <path
       inkscape:connector-curvature="0"
       id="path3890"
       style="font-size:40px;font-style:normal;font-variant:normal;font-weight:normal;font-stretch:normal;line-height:125%;letter-spacing:0px;word-spacing:0px;fill:#000000;fill-opacity:1;stroke:none;font-family:Droid Arabic Naskh;-inkscape-font-specification:Droid Arabic Naskh"
       d="m 29.529267,1016.9236 c 0.369694,0.7226 0.663774,1.5124 0.882245,2.3694 0.235255,0.8571 0.352887,1.5965 0.352898,2.2182 -1.1e-5,1.0924 -0.352908,2.0838 -1.058693,2.9745 -0.705805,0.8738 -1.588049,1.3107 -2.646734,1.3107 -0.386515,0 -0.815033,-0.092 -1.285557,-0.2773 -0.453731,-0.1848 -0.823433,-0.4705 -1.109107,-0.857 -0.352903,0.8571 -0.840238,1.5124 -1.462006,1.9661 -0.621774,0.4538 -1.268754,0.6807 -1.940938,0.6806 -0.907452,10e-5 -1.646856,-0.2856 -2.218215,-0.857 -0.588162,-0.5713 -0.882243,-1.4032 -0.882245,-2.4955 2e-6,-0.3697 0.06721,-0.8486 0.201655,-1.4368 0.134439,-0.6049 0.344498,-1.1763 0.630176,-1.7141 l 1.033486,0.2017 c -0.168046,0.7226 -0.252069,1.3276 -0.25207,1.8149 1e-6,1.2604 0.546151,1.8905 1.638455,1.8905 0.520942,0 0.949461,-0.1848 1.285556,-0.5545 0.352896,-0.3697 0.529344,-0.8739 0.529348,-1.5125 l -0.100835,-2.3694 1.58804,-1.0335 c 0.168042,1.21 0.352893,2.0502 0.554554,2.5207 0.218456,0.4706 0.504133,0.8319 0.857037,1.0839 0.369697,0.2521 0.848629,0.3781 1.436799,0.3781 0.285672,0 0.554546,-0.092 0.806624,-0.2773 0.268865,-0.1848 0.445314,-0.3696 0.529347,-0.5545 -0.134447,-0.5882 -0.495746,-1.5124 -1.083901,-2.7728 -0.08403,-0.2016 -0.12604,-0.4033 -0.12604,-0.605 -8e-6,-0.4369 0.176441,-0.857 0.529346,-1.2603 0.369695,-0.4201 0.806615,-0.6974 1.310764,-0.8318" />
    <path
       inkscape:export-ydpi="90"
       inkscape:export-xdpi="90"
       inkscape:export-filename="/home/hacko/Projects/git/mishkal (copy)/ar/images/sukun.png"
       style="fill:#214478;fill-opacity:1;stroke:none"
       inkscape:connector-curvature="0"
       d="m 0.35932921,1028.3622 c 0,-13.2548 10.58428779,-24 23.64067179,-24 13.056382,0 23.64067,10.7452 23.64067,24 0,13.2548 -10.584288,24 -23.64067,24 -13.056384,0 -23.64067179,-10.7452 -23.64067179,-24 z m 0,0"
       id="path5724"
       sketch:type="MSShapeGroup" />
    <g
       transform="matrix(0.75808647,0,0,0.75808647,-72.475453,1011.733)"
       style="font-size:40px;font-style:normal;font-weight:normal;line-height:125%;letter-spacing:0px;word-spacing:0px;fill:#ffffff;fill-opacity:1;stroke:none;font-family:Sans"
       id="flowRoot4036">
      <path
         d="m 122.07062,40.572263 c -3.0047,-10e-7 -5.2549,-0.251494 -6.75061,-0.75448 -1.49573,-0.489749 -2.60097,-1.283937 -3.31574,-2.382567 -0.71477,-1.111861 -1.07216,-2.627437 -1.07216,-4.546733 0,-0.64858 0.0728,-1.515569 0.2184,-2.60097 0.15884,-1.098618 0.30444,-1.91266 0.43681,-2.442131 l 2.14431,0.07942 c -0.1059,0.701545 -0.15884,1.297186 -0.15883,1.786926 -1e-5,1.35013 0.31766,2.389193 0.95302,3.117192 0.64858,0.728013 1.6744,1.250854 3.07748,1.568524 1.40306,0.31768 3.47457,0.476518 6.21453,0.476513 3.1635,5e-6 5.69829,-0.132359 7.60436,-0.397094 1.91927,-0.264724 3.64001,-0.780947 5.16223,-1.54867 -0.62214,-1.204511 -1.734,-2.508304 -3.3356,-3.911381 -1.60163,-1.403055 -3.58048,-2.77303 -5.93656,-4.109929 -0.41034,0.119143 -0.81406,0.178707 -1.21113,0.178693 -0.8604,1.4e-5 -1.6281,-0.304425 -2.30315,-0.913318 -0.66185,-0.608862 -0.99276,-1.336867 -0.99274,-2.18402 -2e-5,-0.648569 0.16544,-1.786906 0.49637,-3.415013 0.33089,-1.628065 0.58239,-2.495054 0.75448,-2.60097 4.54009,-2.250176 7.47197,-3.679714 8.79564,-4.288621 1.33686,-0.608849 2.84582,-1.270673 4.52688,-1.9854722 1.681,-0.7147396 3.00465,-1.2640531 3.97094,-1.6479426 0.62209,0.595673 0.93315,1.3898613 0.93318,2.3825678 -3e-5,0.794218 -0.22505,1.555315 -0.67506,2.283293 -0.43684,0.714797 -1.04572,1.277347 -1.82663,1.687652 -0.78099,0.410356 -1.98551,0.972906 -3.61357,1.687651 -1.62811,0.714794 -3.24296,1.356763 -4.84455,1.92591 -1.60164,0.555954 -3.52093,1.144976 -5.75787,1.76707 2.38254,0.622134 4.59966,1.61487 6.65133,2.978209 2.06486,1.350138 3.7062,2.898805 4.92398,4.646007 1.23096,1.733991 1.84646,3.368695 1.84649,4.904118 -3e-5,1.681039 -0.642,3.137051 -1.92592,4.368041 -1.27072,1.217758 -3.22972,2.170784 -5.877,2.859081 -2.63407,0.688296 -5.67185,1.032444 -9.11331,1.032445 m 1.13171,-28.711464 c -0.2118,-0.886819 -0.31768,-1.508933 -0.31767,-1.8663455 -1e-5,-0.1588103 0.0264,-0.2514654 0.0794,-0.2779656 l 4.76514,-2.342858 11.99225,-5.7181619 c 0.43677,0.3309472 0.65517,0.7346596 0.6552,1.2111384 l -0.0198,0.297821 c -0.1324,0.5824387 -0.52287,1.0192423 -1.17143,1.3104121 -6.31382,2.8326377 -11.6415,5.2946215 -15.98306,7.3859595"
         style="font-variant:normal;font-weight:bold;font-stretch:normal;fill:#ffffff;font-family:Droid Arabic Naskh;-inkscape-font-specification:Droid Arabic Naskh Bold"
         id="path4073"
         inkscape:connector-curvature="0"
         sodipodi:nodetypes="cccsccccccscccccccccccccccsccccccccccccccccc"
         inkscape:export-filename="/home/hacko/Projects/git/mishkal/ar/images/gaf.png"
         inkscape:export-xdpi="90"
         inkscape:export-ydpi="90" />
    </g>
    <path
       inkscape:export-ydpi="90"
       inkscape:export-xdpi="90"
       inkscape:export-filename="/home/hacko/Projects/git/mishkal (copy)/ar/images/fatha.png"
       style="fill:#000000;fill-opacity:0.07999998;stroke:none"
       inkscape:connector-curvature="0"
       d="m 47.640671,1028.3622 c 0,13.2548 -10.584288,24 -23.64067,24 -4.842304,0 -9.344572,-1.478 -13.092876,-4.0138 l 27.088176,-39.3307 c 5.849519,4.369 9.64537,11.4067 9.64537,19.3445 z m 0,0"
       id="reflec-8"
       sketch:type="MSShapeGroup" />
  </g>
</svg>
