<?xml version="1.0" encoding="UTF-8" standalone="no"?>
<!-- Created with Inkscape (http://www.inkscape.org/) -->

<svg
   xmlns:sketch="http://www.bohemiancoding.com/sketch/ns"
   xmlns:dc="http://purl.org/dc/elements/1.1/"
   xmlns:cc="http://creativecommons.org/ns#"
   xmlns:rdf="http://www.w3.org/1999/02/22-rdf-syntax-ns#"
   xmlns:svg="http://www.w3.org/2000/svg"
   xmlns="http://www.w3.org/2000/svg"
   xmlns:sodipodi="http://sodipodi.sourceforge.net/DTD/sodipodi-0.dtd"
   xmlns:inkscape="http://www.inkscape.org/namespaces/inkscape"
   width="48"
   height="48"
   id="svg2"
   version="1.1"
   inkscape:version="0.48.4 r9939"
   sodipodi:docname="alef_wasla.svg"
   inkscape:export-filename="/home/hacko/Projects/git/mishkal/ar/images/alef_wasla.png"
   inkscape:export-xdpi="90"
   inkscape:export-ydpi="90">
  <defs
     id="defs4" />
  <sodipodi:namedview
     id="base"
     pagecolor="#ffffff"
     bordercolor="#666666"
     borderopacity="1.0"
     inkscape:pageopacity="0.0"
     inkscape:pageshadow="2"
     inkscape:zoom="4.160951"
     inkscape:cx="84.301486"
     inkscape:cy="4.8176631"
     inkscape:document-units="px"
     inkscape:current-layer="layer1"
     showgrid="false"
     inkscape:snap-bbox="true"
     inkscape:snap-page="true"
     inkscape:window-width="1366"
     inkscape:window-height="715"
     inkscape:window-x="0"
     inkscape:window-y="27"
     inkscape:window-maximized="1" />
  <metadata
     id="metadata7">
    <rdf:RDF>
      <cc:Work
         rdf:about="">
        <dc:format>image/svg+xml</dc:format>
        <dc:type
           rdf:resource="http://purl.org/dc/dcmitype/StillImage" />
        <dc:title></dc:title>
      </cc:Work>
    </rdf:RDF>
  </metadata>
  <g
     inkscape:label="Layer 1"
     inkscape:groupmode="layer"
     id="layer1"
     transform="translate(0,-1004.3622)">
    <flowRoot
       xml:space="preserve"
       id="flowRoot2985"
       style="font-size:40px;font-style:normal;font-weight:normal;line-height:125%;letter-spacing:0px;word-spacing:0px;fill:#000000;fill-opacity:1;stroke:none;font-family:Sans"><flowRegion
         id="flowRegion2987"><rect
           id="rect2989"
           width="157.5838"
           height="115.15739"
           x="157.5838"
           y="264.44321" /></flowRegion><flowPara
         id="flowPara2991" /></flowRoot>    <path
       inkscape:connector-curvature="0"
       id="path3890"
       style="font-size:40px;font-style:normal;font-variant:normal;font-weight:normal;font-stretch:normal;line-height:125%;letter-spacing:0px;word-spacing:0px;fill:#000000;fill-opacity:1;stroke:none;font-family:Droid Arabic Naskh;-inkscape-font-specification:Droid Arabic Naskh"
       d="m 29.529267,1016.9236 c 0.369694,0.7226 0.663774,1.5124 0.882245,2.3694 0.235255,0.8571 0.352887,1.5965 0.352898,2.2182 -1.1e-5,1.0924 -0.352908,2.0838 -1.058693,2.9745 -0.705805,0.8738 -1.588049,1.3107 -2.646734,1.3107 -0.386515,0 -0.815033,-0.092 -1.285557,-0.2773 -0.453731,-0.1848 -0.823433,-0.4705 -1.109107,-0.857 -0.352903,0.8571 -0.840238,1.5124 -1.462006,1.9661 -0.621774,0.4538 -1.268754,0.6807 -1.940938,0.6806 -0.907452,10e-5 -1.646856,-0.2856 -2.218215,-0.857 -0.588162,-0.5713 -0.882243,-1.4032 -0.882245,-2.4955 2e-6,-0.3697 0.06721,-0.8486 0.201655,-1.4368 0.134439,-0.6049 0.344498,-1.1763 0.630176,-1.7141 l 1.033486,0.2017 c -0.168046,0.7226 -0.252069,1.3276 -0.25207,1.8149 1e-6,1.2604 0.546151,1.8905 1.638455,1.8905 0.520942,0 0.949461,-0.1848 1.285556,-0.5545 0.352896,-0.3697 0.529344,-0.8739 0.529348,-1.5125 l -0.100835,-2.3694 1.58804,-1.0335 c 0.168042,1.21 0.352893,2.0502 0.554554,2.5207 0.218456,0.4706 0.504133,0.8319 0.857037,1.0839 0.369697,0.2521 0.848629,0.3781 1.436799,0.3781 0.285672,0 0.554546,-0.092 0.806624,-0.2773 0.268865,-0.1848 0.445314,-0.3696 0.529347,-0.5545 -0.134447,-0.5882 -0.495746,-1.5124 -1.083901,-2.7728 -0.08403,-0.2016 -0.12604,-0.4033 -0.12604,-0.605 -8e-6,-0.4369 0.176441,-0.857 0.529346,-1.2603 0.369695,-0.4201 0.806615,-0.6974 1.310764,-0.8318" />
    <path
       inkscape:export-ydpi="90"
       inkscape:export-xdpi="90"
       inkscape:export-filename="/home/hacko/Projects/git/mishkal (copy)/ar/images/sukun.png"
       style="fill:#214478;fill-opacity:1;stroke:none"
       inkscape:connector-curvature="0"
       d="m 0.35932921,1028.3622 c 0,-13.2548 10.58428779,-24 23.64067179,-24 13.056382,0 23.64067,10.7452 23.64067,24 0,13.2548 -10.584288,24 -23.64067,24 -13.056384,0 -23.64067179,-10.7452 -23.64067179,-24 z m 0,0"
       id="path5724"
       sketch:type="MSShapeGroup" />
    <g
       transform="matrix(0.75808647,0,0,0.75808647,-79.994794,1013.9733)"
       style="font-size:40px;font-style:normal;font-weight:normal;line-height:125%;letter-spacing:0px;word-spacing:0px;fill:#ffffff;fill-opacity:1;stroke:none;font-family:Sans"
       id="flowRoot4036">
      <path
         d="m 138.88281,15.253739 0,4.101563 -0.2539,17.460937 -3.02735,0.390625 c -0.65104,-10.611968 -1.10026,-17.083316 -1.34765,-19.414062 -0.35157,-3.098936 -0.52735,-4.941382 -0.52735,-5.527344 0,-1.223932 0.46224,-2.200494 1.38672,-2.9296873 0.93749,-0.7421593 2.09635,-1.1132527 3.47656,-1.1132812 0.54687,1.9791935 1.17838,3.9127855 1.89453,5.8007815 l -1.60156,1.230468 m -1.54297,-9.0820308 c -0.66407,3.06e-5 -1.3086,-0.097626 -1.93359,-0.2929687 -0.61198,-0.2083022 -1.36719,-0.5403332 -2.26563,-0.9960938 -0.67708,0.3385733 -1.27604,0.7682603 -1.79687,1.2890625 l -1.03516,-0.9179687 c 0.67709,-1.0937174 1.27604,-1.8619458 1.79688,-2.3046875 0.52083,-0.4426741 1.0677,-0.664028 1.64062,-0.6640625 0.10417,3.45e-5 0.34505,0.08467 0.72266,0.2539062 1.35416,-2.13538025 2.80598,-3.20308752 4.35547,-3.203125 0.65103,3.748e-5 1.26301,0.37113086 1.83594,1.11328125 0.58592,0.72920235 0.87889,1.54300355 0.8789,2.44140625 -1e-5,0.286492 -0.0391,0.6510749 -0.11719,1.09375 -0.0781,0.4427407 -0.1823,0.8268549 -0.3125,1.1523438 -0.58594,0.4036771 -1.17188,0.6771143 -1.75781,0.8203125 -0.57292,0.1432598 -1.2435,0.2148743 -2.01172,0.2148437 m 1.07422,-4.3945312 c -0.8073,3.5e-5 -1.72527,0.4622741 -2.7539,1.3867187 0.54686,0.2734709 1.10676,0.4101895 1.67968,0.4101563 0.79427,3.32e-5 1.34114,-0.032519 1.64063,-0.097656 0.29947,-0.065071 0.70962,-0.2082998 1.23047,-0.4296875 -0.44272,-0.8463195 -1.04168,-1.2694962 -1.79688,-1.2695312"
         style="font-variant:normal;font-weight:bold;font-stretch:normal;fill:#ffffff;font-family:Droid Arabic Naskh;-inkscape-font-specification:Droid Arabic Naskh Bold"
         id="path4133" />
    </g>
    <path
       inkscape:export-ydpi="90"
       inkscape:export-xdpi="90"
       inkscape:export-filename="/home/hacko/Projects/git/mishkal (copy)/ar/images/fatha.png"
       style="fill:#000000;fill-opacity:0.07999998;stroke:none"
       inkscape:connector-curvature="0"
       d="m 47.640671,1028.3622 c 0,13.2548 -10.584288,24 -23.64067,24 -4.842304,0 -9.344572,-1.478 -13.092876,-4.0138 l 27.088176,-39.3307 c 5.849519,4.369 9.64537,11.4067 9.64537,19.3445 z m 0,0"
       id="reflec-8"
       sketch:type="MSShapeGroup" />
  </g>
</svg>
