<?xml version="1.0" encoding="UTF-8" standalone="no"?>
<!-- Created with Inkscape (http://www.inkscape.org/) -->

<svg
   xmlns:sketch="http://www.bohemiancoding.com/sketch/ns"
   xmlns:dc="http://purl.org/dc/elements/1.1/"
   xmlns:cc="http://creativecommons.org/ns#"
   xmlns:rdf="http://www.w3.org/1999/02/22-rdf-syntax-ns#"
   xmlns:svg="http://www.w3.org/2000/svg"
   xmlns="http://www.w3.org/2000/svg"
   xmlns:sodipodi="http://sodipodi.sourceforge.net/DTD/sodipodi-0.dtd"
   xmlns:inkscape="http://www.inkscape.org/namespaces/inkscape"
   width="48"
   height="48"
   id="svg2"
   version="1.1"
   inkscape:version="0.48.4 r9939"
   sodipodi:docname="icon.svg"
   inkscape:export-filename="/home/hacko/Projects/git/mishkal/ar/images/icon.png"
   inkscape:export-xdpi="90"
   inkscape:export-ydpi="90">
  <defs
     id="defs4" />
  <sodipodi:namedview
     id="base"
     pagecolor="#ffffff"
     bordercolor="#666666"
     borderopacity="1.0"
     inkscape:pageopacity="0.0"
     inkscape:pageshadow="2"
     inkscape:zoom="7.9999996"
     inkscape:cx="34.133666"
     inkscape:cy="18.774435"
     inkscape:document-units="px"
     inkscape:current-layer="layer1"
     showgrid="false"
     inkscape:snap-bbox="false"
     inkscape:snap-page="true"
     inkscape:window-width="1366"
     inkscape:window-height="715"
     inkscape:window-x="0"
     inkscape:window-y="27"
     inkscape:window-maximized="1"
     showguides="true"
     inkscape:guide-bbox="true" />
  <metadata
     id="metadata7">
    <rdf:RDF>
      <cc:Work
         rdf:about="">
        <dc:format>image/svg+xml</dc:format>
        <dc:type
           rdf:resource="http://purl.org/dc/dcmitype/StillImage" />
        <dc:title></dc:title>
      </cc:Work>
    </rdf:RDF>
  </metadata>
  <g
     inkscape:label="Layer 1"
     inkscape:groupmode="layer"
     id="layer1"
     transform="translate(0,-1004.3622)">
    <flowRoot
       xml:space="preserve"
       id="flowRoot2985"
       style="font-size:40px;font-style:normal;font-weight:normal;line-height:125%;letter-spacing:0px;word-spacing:0px;fill:#000000;fill-opacity:1;stroke:none;font-family:Sans"><flowRegion
         id="flowRegion2987"><rect
           id="rect2989"
           width="157.5838"
           height="115.15739"
           x="157.5838"
           y="264.44321" /></flowRegion><flowPara
         id="flowPara2991" /></flowRoot>    <path
       inkscape:export-ydpi="90"
       inkscape:export-xdpi="90"
       inkscape:export-filename="/home/hacko/Projects/git/mishkal (copy)/ar/images/damma.png"
       style="fill:#00aa00;fill-opacity:1;stroke:none"
       inkscape:connector-curvature="0"
       d="m 0.359329,1028.3622 c 0,-13.2548 10.584288,-24 23.640672,-24 13.056382,0 23.640669,10.7452 23.640669,24 0,13.2548 -10.584287,24 -23.640669,24 -13.056384,0 -23.640672,-10.7452 -23.640672,-24 z m 0,0"
       id="path5724"
       sketch:type="MSShapeGroup" />
    <flowRoot
       xml:space="preserve"
       id="flowRoot2985-5"
       style="font-size:40px;font-style:normal;font-weight:normal;line-height:125%;letter-spacing:0px;word-spacing:0px;fill:#000000;fill-opacity:1;stroke:none;font-family:Sans"
       transform="translate(-57.769841,28.157084)"><flowRegion
         id="flowRegion2987-1"><rect
           id="rect2989-7"
           width="157.5838"
           height="115.15739"
           x="157.5838"
           y="264.44321" /></flowRegion><flowPara
         id="flowPara2991-0" /></flowRoot>    <path
       inkscape:connector-curvature="0"
       id="path3005"
       style="font-size:40px;font-style:normal;font-variant:normal;font-weight:normal;font-stretch:normal;line-height:125%;letter-spacing:0px;word-spacing:0px;fill:#ffffff;fill-opacity:1;stroke:none;font-family:Amiri;-inkscape-font-specification:Amiri"
       d="m 28.383987,1020.1376 c 0.938548,0.097 1.618206,0.8417 2.03898,2.2332 0.42071,1.3918 0.598714,2.8159 0.534017,4.2723 -0.06475,1.4239 -0.32368,2.8481 -0.776754,4.272 1.100371,0.6473 1.909487,1.1329 2.427357,1.4564 0.517803,0.3238 0.744354,0.6474 0.679658,0.971 l -0.679658,3.2526 c -0.226588,1.0359 -1.035705,1.1168 -2.427357,0.2428 -1.132795,-0.712 -1.909549,-1.2459 -2.330262,-1.6021 -2.848121,5.3403 -7.298269,8.8844 -13.350453,10.6319 -1.521159,0.4531 -2.362641,0.2104 -2.524452,-0.7283 -0.194201,-0.906 0.50164,-1.6019 2.087525,-2.0874 5.501987,-1.6182 9.466663,-4.6605 11.894045,-9.1269 -2.297922,-1.6828 -3.608695,-3.0099 -3.932319,-3.9809 -0.323669,-0.9709 -0.1942,-2.3141 0.388379,-4.0293 0.582542,-1.7477 1.407842,-3.1718 2.475902,-4.2723 1.100376,-1.1327 2.265504,-1.6342 3.495392,-1.505 m -0.922395,6.117 c -0.712052,-0.8414 -1.699175,-0.9061 -2.961374,-0.1942 -0.582591,0.3237 -0.501678,0.7768 0.242745,1.3593 1.100376,0.874 2.103681,1.5213 3.009923,1.9418 0.258889,0.098 0.355982,-0.372 0.291281,-1.4076 -0.06474,-0.7768 -0.258947,-1.3433 -0.582566,-1.6993 m -7.5248,3.2526 c 0.517812,-0.097 0.63109,0.3076 0.339828,1.2137 l -0.8253,2.573 c -0.356033,1.1005 -1.116602,1.4889 -2.281716,1.1651 -1.132783,-0.3559 -2.006629,-1.343 -2.621542,-2.9614 -0.582581,-1.618 -0.679676,-3.2686 -0.291285,-4.9517 0.712009,-3.0746 2.394975,-6.0521 5.0489,-8.9327 6.052182,-6.667 10.389055,-9.3533 13.010627,-8.0587 0.938545,0.4532 1.456381,1.3108 1.553507,2.5728 0.06471,1.3272 -0.307496,2.6542 -1.116582,3.981 -0.712057,1.1329 -1.569722,1.2138 -2.572998,0.2427 -1.780089,-1.7476 -3.948524,-1.6829 -6.505314,0.1942 -2.265552,1.6183 -3.916153,3.2365 -4.951805,4.8548 -1.229878,1.8772 -1.893356,3.3984 -1.990431,4.5634 -0.06476,1.1652 0.258901,2.0876 0.970943,2.7671 0.647275,0.6474 1.391663,0.9064 2.233168,0.7767" />
    <path
       inkscape:export-ydpi="90"
       inkscape:export-xdpi="90"
       inkscape:export-filename="/home/hacko/Projects/git/mishkal (copy)/ar/images/fatha.png"
       style="fill:#000000;fill-opacity:0.15270936;stroke:none"
       inkscape:connector-curvature="0"
       d="m 47.640671,1028.3622 c 0,13.2548 -10.584288,24 -23.64067,24 -4.842304,0 -9.344572,-1.478 -13.092876,-4.0138 l 27.088176,-39.3307 c 5.849519,4.369 9.64537,11.4067 9.64537,19.3445 z m 0,0"
       id="reflec-8"
       sketch:type="MSShapeGroup" />
  </g>
</svg>
