<?xml version="1.0" encoding="UTF-8" standalone="no"?>
<!-- Created with Inkscape (http://www.inkscape.org/) -->

<svg
   xmlns:sketch="http://www.bohemiancoding.com/sketch/ns"
   xmlns:dc="http://purl.org/dc/elements/1.1/"
   xmlns:cc="http://creativecommons.org/ns#"
   xmlns:rdf="http://www.w3.org/1999/02/22-rdf-syntax-ns#"
   xmlns:svg="http://www.w3.org/2000/svg"
   xmlns="http://www.w3.org/2000/svg"
   xmlns:sodipodi="http://sodipodi.sourceforge.net/DTD/sodipodi-0.dtd"
   xmlns:inkscape="http://www.inkscape.org/namespaces/inkscape"
   width="48"
   height="48"
   id="svg2"
   version="1.1"
   inkscape:version="0.48.4 r9939"
   sodipodi:docname="damma.svg"
   inkscape:export-filename="/home/hacko/Projects/git/mishkal (copy)/ar/images/svg/damma.png"
   inkscape:export-xdpi="90"
   inkscape:export-ydpi="90">
  <defs
     id="defs4" />
  <sodipodi:namedview
     id="base"
     pagecolor="#ffffff"
     bordercolor="#666666"
     borderopacity="1.0"
     inkscape:pageopacity="0.0"
     inkscape:pageshadow="2"
     inkscape:zoom="3.6203867"
     inkscape:cx="12.272512"
     inkscape:cy="20.967196"
     inkscape:document-units="px"
     inkscape:current-layer="layer1"
     showgrid="false"
     inkscape:snap-bbox="true"
     inkscape:snap-page="true"
     inkscape:window-width="1366"
     inkscape:window-height="715"
     inkscape:window-x="0"
     inkscape:window-y="27"
     inkscape:window-maximized="1" />
  <metadata
     id="metadata7">
    <rdf:RDF>
      <cc:Work
         rdf:about="">
        <dc:format>image/svg+xml</dc:format>
        <dc:type
           rdf:resource="http://purl.org/dc/dcmitype/StillImage" />
        <dc:title></dc:title>
      </cc:Work>
    </rdf:RDF>
  </metadata>
  <g
     inkscape:label="Layer 1"
     inkscape:groupmode="layer"
     id="layer1"
     transform="translate(0,-1004.3622)">
    <flowRoot
       xml:space="preserve"
       id="flowRoot2985"
       style="font-size:40px;font-style:normal;font-weight:normal;line-height:125%;letter-spacing:0px;word-spacing:0px;fill:#000000;fill-opacity:1;stroke:none;font-family:Sans"><flowRegion
         id="flowRegion2987"><rect
           id="rect2989"
           width="157.5838"
           height="115.15739"
           x="157.5838"
           y="264.44321" /></flowRegion><flowPara
         id="flowPara2991" /></flowRoot>    <g
       id="g3903"
       transform="translate(-0.35932921,0)"
       inkscape:export-filename="/home/hacko/Projects/git/mishkal (copy)/ar/images/fathatan.png"
       inkscape:export-xdpi="90"
       inkscape:export-ydpi="90">
      <path
         sketch:type="MSShapeGroup"
         id="path5724"
         d="m 0.71865842,1028.3622 c 0,-13.2548 10.58428758,-24 23.64067158,-24 13.056382,0 23.64067,10.7452 23.64067,24 0,13.2548 -10.584288,24 -23.64067,24 -13.056384,0 -23.64067158,-10.7452 -23.64067158,-24 z m 0,0"
         inkscape:connector-curvature="0"
         style="fill:#d40000;stroke:none"
         inkscape:export-filename="/home/hacko/Projects/git/mishkal (copy)/ar/images/fatha.png"
         inkscape:export-xdpi="90"
         inkscape:export-ydpi="90" />
      <path
         sodipodi:nodetypes="cscsccscsccscscccccccscsccsssccsssc"
         d="m 37.294992,1037.6698 c -4.2e-5,1.1679 -0.560564,1.7517 -1.681579,1.7517 -1.214494,0 -1.82174,-0.5838 -1.821699,-1.7517 -4.1e-5,-1.1677 0.607205,-1.7516 1.821699,-1.7516 1.121015,0 1.681537,0.5839 1.681579,1.7516 m -5.184856,-3.4332 c -2.8e-5,1.1445 -0.56055,1.7167 -1.681565,1.7167 -1.214508,0 -1.821741,-0.5722 -1.821713,-1.7167 -2.8e-5,-1.1911 0.607205,-1.7866 1.821713,-1.7866 1.121015,0 1.681537,0.5955 1.681565,1.7866 m 8.653093,8.6181 c -3.7e-5,1.1911 -0.595594,1.7866 -1.786672,1.7866 -1.144434,0 -1.716644,-0.5955 -1.716602,-1.7866 -4.2e-5,-1.1443 0.595517,-1.7166 1.786675,-1.7166 1.14436,0 1.716562,0.5723 1.716599,1.7166 m -14.748799,-9.9143 c -1.4e-5,1.1912 -0.583898,1.7868 -1.751625,1.7866 -1.167782,2e-4 -1.751666,-0.5954 -1.751638,-1.7866 -2.8e-5,-1.1443 0.583856,-1.7165 1.751638,-1.7166 1.167727,10e-5 1.751611,0.5723 1.751625,1.7166 m -6.060654,1.2962 c -2.8e-5,1.1445 -0.595573,1.7167 -1.786676,1.7167 -1.14442,0 -1.716616,-0.5722 -1.716602,-1.7167 -1.4e-5,-1.1911 0.572182,-1.7866 1.716602,-1.7866 1.191103,0 1.786648,0.5955 1.786676,1.7866 m -5.184856,3.4332 c -1.4e-5,1.1679 -0.583885,1.7517 -1.751639,1.7517 -1.167768,0 -1.75164,-0.5488 -1.75164,-1.6465 0,-1.2379 0.583872,-1.8568 1.75164,-1.8568 1.167754,0 1.751625,0.5839 1.751639,1.7516 m -3.468242,5.1849 c -1.4e-5,1.1911 -0.560535,1.7866 -1.6815788,1.7866 -1.214465,0 -1.821698,-0.5955 -1.821698,-1.7866 0,-1.1443 0.58387,-1.7166 1.751638,-1.7166 1.1677548,0 1.7516248,0.5723 1.7516388,1.7166"
         style="font-size:40px;font-style:normal;font-variant:normal;font-weight:normal;font-stretch:normal;line-height:125%;letter-spacing:0px;word-spacing:0px;fill:#ffffff;fill-opacity:1;stroke:none;font-family:Droid Arabic Naskh;-inkscape-font-specification:Droid Arabic Naskh"
         id="path3876"
         inkscape:connector-curvature="0"
         inkscape:export-filename="/home/hacko/Projects/git/mishkal (copy)/ar/images/fatha.png"
         inkscape:export-xdpi="90"
         inkscape:export-ydpi="90" />
      <path
         sketch:type="MSShapeGroup"
         id="reflec-8"
         d="m 48,1028.3622 c 0,13.2548 -10.584288,24 -23.64067,24 -4.842304,0 -9.344572,-1.478 -13.092876,-4.0138 L 38.35463,1009.0177 C 44.204149,1013.3867 48,1020.4244 48,1028.3622 z m 0,0"
         inkscape:connector-curvature="0"
         style="fill:#000000;fill-opacity:0.07999998;stroke:none"
         inkscape:export-filename="/home/hacko/Projects/git/mishkal (copy)/ar/images/fatha.png"
         inkscape:export-xdpi="90"
         inkscape:export-ydpi="90" />
    </g>
    <path
       inkscape:connector-curvature="0"
       id="path3880"
       style="font-size:40px;font-style:normal;font-variant:normal;font-weight:normal;font-stretch:normal;line-height:125%;letter-spacing:0px;word-spacing:0px;fill:#ffffff;fill-opacity:1;stroke:none;font-family:Droid Arabic Naskh;-inkscape-font-specification:Droid Arabic Naskh"
       d="m 14.739011,1026.7804 c 1.39815,-0.2184 2.927372,-0.6444 4.587673,-1.278 1.682144,-0.6554 3.255058,-1.4637 4.718749,-2.4249 -1.004925,-0.4588 -1.867843,-1.0814 -2.588759,-1.8679 -0.720922,-0.8082 -1.081382,-1.7694 -1.081379,-2.8836 -3e-6,-0.9831 0.283995,-1.9443 0.851995,-2.8837 0.58984,-0.9612 1.343529,-1.7368 2.261068,-2.3266 0.917528,-0.5898 1.802293,-0.8848 2.654296,-0.8848 1.004909,0 1.824136,0.568 2.457682,1.7041 0.633523,1.1141 0.950291,2.6652 0.950303,4.6531 -1.2e-5,0.8303 -0.152929,1.6822 -0.458766,2.556 1.070443,0.1311 2.119054,0.1967 3.145832,0.1966 -0.109239,1.0269 -0.480628,1.7368 -1.114151,2.13 -0.633548,0.3714 -1.605696,0.5571 -2.916447,0.5571 l -0.589845,0 -0.622612,-0.065 c -1.48554,1.5292 -3.102147,2.8072 -4.849825,3.8339 -1.725841,1.0269 -3.233217,1.5403 -4.522135,1.5402 -0.895685,10e-5 -1.594759,-0.2184 -2.097221,-0.6554 -0.524301,-0.4587 -0.786454,-1.0922 -0.786458,-1.9006 m 8.028427,-9.8635 c -5e-6,1.6167 1.277988,2.8291 3.833983,3.6374 0.305836,-0.5461 0.458758,-1.1359 0.458768,-1.7695 -10e-6,-1.0049 -0.196624,-1.8242 -0.589844,-2.4577 -0.393237,-0.6335 -0.906619,-0.9503 -1.540148,-0.9503 -0.502466,0 -0.994001,0.1747 -1.474608,0.5243 -0.458773,0.3496 -0.688156,0.6882 -0.688151,1.0158" />
  </g>
</svg>
