<?xml version="1.0" encoding="UTF-8" standalone="no"?>
<!-- Created with Inkscape (http://www.inkscape.org/) -->

<svg
   xmlns:sketch="http://www.bohemiancoding.com/sketch/ns"
   xmlns:dc="http://purl.org/dc/elements/1.1/"
   xmlns:cc="http://creativecommons.org/ns#"
   xmlns:rdf="http://www.w3.org/1999/02/22-rdf-syntax-ns#"
   xmlns:svg="http://www.w3.org/2000/svg"
   xmlns="http://www.w3.org/2000/svg"
   xmlns:sodipodi="http://sodipodi.sourceforge.net/DTD/sodipodi-0.dtd"
   xmlns:inkscape="http://www.inkscape.org/namespaces/inkscape"
   width="48"
   height="48"
   id="svg2"
   version="1.1"
   inkscape:version="0.48.4 r9939"
   sodipodi:docname="font.svg"
   inkscape:export-filename="/home/hacko/Projects/git/mishkal (copy)/ar/images/font.png"
   inkscape:export-xdpi="90"
   inkscape:export-ydpi="90">
  <defs
     id="defs4" />
  <sodipodi:namedview
     id="base"
     pagecolor="#ffffff"
     bordercolor="#666666"
     borderopacity="1.0"
     inkscape:pageopacity="0.0"
     inkscape:pageshadow="2"
     inkscape:zoom="0.90509668"
     inkscape:cx="75.714166"
     inkscape:cy="-18.435389"
     inkscape:document-units="px"
     inkscape:current-layer="g3903"
     showgrid="false"
     inkscape:snap-bbox="true"
     inkscape:snap-page="true"
     inkscape:window-width="1366"
     inkscape:window-height="715"
     inkscape:window-x="0"
     inkscape:window-y="27"
     inkscape:window-maximized="1" />
  <metadata
     id="metadata7">
    <rdf:RDF>
      <cc:Work
         rdf:about="">
        <dc:format>image/svg+xml</dc:format>
        <dc:type
           rdf:resource="http://purl.org/dc/dcmitype/StillImage" />
        <dc:title></dc:title>
      </cc:Work>
    </rdf:RDF>
  </metadata>
  <g
     inkscape:label="Layer 1"
     inkscape:groupmode="layer"
     id="layer1"
     transform="translate(0,-1004.3622)">
    <flowRoot
       xml:space="preserve"
       id="flowRoot2985"
       style="font-size:40px;font-style:normal;font-weight:normal;line-height:125%;letter-spacing:0px;word-spacing:0px;fill:#000000;fill-opacity:1;stroke:none;font-family:Sans"><flowRegion
         id="flowRegion2987"><rect
           id="rect2989"
           width="157.5838"
           height="115.15739"
           x="157.5838"
           y="264.44321" /></flowRegion><flowPara
         id="flowPara2991" /></flowRoot>    <g
       id="g3903"
       transform="matrix(1,0,0,-1,-0.35932921,2056.7244)"
       inkscape:export-filename="/home/hacko/Projects/git/mishkal (copy)/ar/images/kasra.png"
       inkscape:export-xdpi="90"
       inkscape:export-ydpi="90">
      <path
         sketch:type="MSShapeGroup"
         id="path5724"
         d="m 0.71865842,1028.3622 c 0,-13.2548 10.58428758,-24 23.64067158,-24 13.056382,0 23.64067,10.7452 23.64067,24 0,13.2548 -10.584288,24 -23.64067,24 -13.056384,0 -23.64067158,-10.7452 -23.64067158,-24 z m 0,0"
         inkscape:connector-curvature="0"
         style="fill:#aa0044;stroke:none" />
      <path
         style="font-size:40px;font-style:normal;font-weight:normal;line-height:125%;letter-spacing:0px;word-spacing:0px;fill:#ffffff;fill-opacity:1;stroke:none;font-family:Sans"
         d="M 5.125 9.53125 C 3.9226472 11.147411 2.9289796 12.945744 2.15625 14.84375 C 2.3996232 16.697486 2.7823862 18.949341 3.28125 21.625 L 4.46875 28.8125 C 3.5776611 29.888743 2.7880879 30.875136 2.09375 31.8125 C 1.9863238 31.7978 1.7519835 31.738864 1.625 31.71875 C 2.0343511 32.940972 2.5356953 34.125309 3.125 35.25 C 3.7531723 35.312155 4.4112042 35.400012 5.25 35.4375 C 7.3214552 35.541652 8.9364893 35.59375 10.09375 35.59375 C 11.875889 35.59375 13.647217 35.357576 15.40625 34.90625 C 17.165239 34.454925 18.664505 33.821646 19.9375 33 C 20.701255 33.798501 21.686477 34.412103 22.84375 34.875 C 23.845674 35.271812 24.827539 35.505848 25.8125 35.5625 C 25.855897 35.576966 25.910888 35.59375 25.96875 35.59375 C 26.097852 35.59375 26.186431 35.594179 26.3125 35.59375 C 26.324182 35.59375 26.332629 35.594285 26.34375 35.59375 C 28.563166 35.5855 30.349862 35.485431 31.625 35.34375 C 32.990542 35.204881 34.248996 34.964069 35.40625 34.59375 C 36.575057 34.21186 37.865932 33.658461 39.3125 32.90625 C 40.620172 32.223478 41.626242 31.726815 42.34375 31.4375 C 43.061225 31.13662 43.706077 30.928229 44.25 30.8125 C 44.762794 30.705668 45.614144 30.631549 46.71875 30.59375 C 47.000121 29.59352 47.254049 28.580253 47.40625 27.53125 C 47.046832 27.478884 46.702706 27.417103 46.40625 27.34375 C 45.283703 27.066019 44.23364 26.688591 43.25 26.15625 C 42.277898 25.623927 41.095857 24.850564 39.71875 23.84375 C 38.515202 22.964256 37.46514 22.319404 36.5625 21.9375 C 35.659839 21.555623 34.754498 21.375014 33.875 21.375 C 32.382147 21.375014 31.187363 21.676029 30.25 22.3125 C 29.312628 22.937425 28.843747 23.779096 28.84375 24.84375 C 28.843747 25.179361 28.884273 25.511626 29 25.8125 C 29.127294 26.10182 29.275482 26.337995 29.4375 26.5 C 30.409582 25.909814 31.090321 25.525452 31.4375 25.375 C 31.784668 25.212996 32.145886 25.09259 32.5625 25 C 32.990674 24.907431 33.487337 24.84376 34.03125 24.84375 C 34.771878 24.84376 35.429473 25.000054 36.03125 25.3125 C 36.644579 25.613393 37.273221 26.017434 37.875 26.46875 C 38.488327 26.920084 39.129712 27.385497 39.8125 27.90625 C 40.49526 28.415445 41.265156 28.895898 42.15625 29.3125 C 41.496605 29.42823 40.85522 29.584524 40.21875 29.78125 C 39.582251 29.977987 38.688483 30.290574 37.53125 30.71875 L 35.625 31.34375 C 33.36768 32.028808 30.259075 32.354755 26.3125 32.375 C 24.680753 32.375003 23.222013 32.010318 21.9375 31.28125 C 23.036853 30.008285 23.56247 28.50902 23.5625 26.75 C 23.56247 26.067234 23.185042 25.241774 22.375 24.28125 C 21.576473 23.320748 20.539153 22.479077 19.3125 21.75 C 18.085795 21.02095 17.05541 20.656265 16.1875 20.65625 C 14.810357 20.656265 13.263631 21.205026 11.5625 22.28125 C 9.8729056 23.345928 8.0853677 24.861404 6.1875 26.875 C 6.1180527 25.359019 5.9976468 23.623579 5.8125 21.65625 C 5.3843074 18.346545 5.0879303 15.601568 4.9375 13.4375 L 6.03125 12.46875 L 5.3125 10.125 C 5.2597299 9.9667035 5.1795734 9.7081962 5.125 9.53125 z M 42.5 14.15625 C 41.736202 15.035777 40.774125 16.061524 39.59375 17.21875 C 40.345945 18.075129 41.355482 18.977003 42.59375 19.9375 C 43.80884 18.791844 44.691036 17.766096 45.28125 16.875 C 44.343863 16.053375 43.414206 15.151501 42.5 14.15625 z M 15.125 24.15625 C 16.282222 24.156261 17.483941 24.581149 18.6875 25.4375 C 19.902581 26.282298 20.900546 27.420346 21.6875 28.84375 C 17.891711 31.216107 14.176552 32.375003 10.53125 32.375 C 8.1357377 32.375003 6.015935 32.310162 4.1875 32.125 C 6.2936736 29.567494 8.3092806 27.595879 10.21875 26.21875 C 12.128186 24.841639 13.747858 24.156261 15.125 24.15625 z "
         transform="matrix(1,0,0,-1,0.35932921,1052.3622)"
         id="flowRoot3029" />
      <path
         sketch:type="MSShapeGroup"
         id="reflec-8"
         d="m 48,1028.3622 c 0,13.2548 -10.584288,24 -23.64067,24 -4.842304,0 -9.344572,-1.478 -13.092876,-4.0138 L 38.35463,1009.0177 C 44.204149,1013.3867 48,1020.4244 48,1028.3622 z m 0,0"
         inkscape:connector-curvature="0"
         style="fill:#000000;fill-opacity:0.07999998;stroke:none" />
    </g>
  </g>
</svg>
