<?xml version="1.0" encoding="UTF-8" standalone="no"?>
<!-- Created with Inkscape (http://www.inkscape.org/) -->

<svg
   xmlns:sketch="http://www.bohemiancoding.com/sketch/ns"
   xmlns:dc="http://purl.org/dc/elements/1.1/"
   xmlns:cc="http://creativecommons.org/ns#"
   xmlns:rdf="http://www.w3.org/1999/02/22-rdf-syntax-ns#"
   xmlns:svg="http://www.w3.org/2000/svg"
   xmlns="http://www.w3.org/2000/svg"
   xmlns:sodipodi="http://sodipodi.sourceforge.net/DTD/sodipodi-0.dtd"
   xmlns:inkscape="http://www.inkscape.org/namespaces/inkscape"
   width="48"
   height="48"
   id="svg2"
   version="1.1"
   inkscape:version="0.48.4 r9939"
   sodipodi:docname="icon.svg"
   inkscape:export-filename="/home/hacko/Projects/git/mishkal/ar/images/icon.png"
   inkscape:export-xdpi="90"
   inkscape:export-ydpi="90">
  <defs
     id="defs4" />
  <sodipodi:namedview
     id="base"
     pagecolor="#ffffff"
     bordercolor="#666666"
     borderopacity="1.0"
     inkscape:pageopacity="0.0"
     inkscape:pageshadow="2"
     inkscape:zoom="11.313708"
     inkscape:cx="16.914739"
     inkscape:cy="36.522595"
     inkscape:document-units="px"
     inkscape:current-layer="layer1"
     showgrid="false"
     inkscape:snap-bbox="false"
     inkscape:snap-page="true"
     inkscape:window-width="1366"
     inkscape:window-height="715"
     inkscape:window-x="0"
     inkscape:window-y="27"
     inkscape:window-maximized="1"
     showguides="true"
     inkscape:guide-bbox="true" />
  <metadata
     id="metadata7">
    <rdf:RDF>
      <cc:Work
         rdf:about="">
        <dc:format>image/svg+xml</dc:format>
        <dc:type
           rdf:resource="http://purl.org/dc/dcmitype/StillImage" />
        <dc:title></dc:title>
      </cc:Work>
    </rdf:RDF>
  </metadata>
  <g
     inkscape:label="Layer 1"
     inkscape:groupmode="layer"
     id="layer1"
     transform="translate(0,-1004.3622)">
    <flowRoot
       xml:space="preserve"
       id="flowRoot2985"
       style="font-size:40px;font-style:normal;font-weight:normal;line-height:125%;letter-spacing:0px;word-spacing:0px;fill:#000000;fill-opacity:1;stroke:none;font-family:Sans"><flowRegion
         id="flowRegion2987"><rect
           id="rect2989"
           width="157.5838"
           height="115.15739"
           x="157.5838"
           y="264.44321" /></flowRegion><flowPara
         id="flowPara2991" /></flowRoot>    <path
       inkscape:export-ydpi="90"
       inkscape:export-xdpi="90"
       inkscape:export-filename="/home/hacko/Projects/git/mishkal (copy)/ar/images/damma.png"
       style="fill:#00aa00;fill-opacity:1;stroke:none"
       inkscape:connector-curvature="0"
       d="m 0.359329,1028.3622 c 0,-13.2548 10.584288,-24 23.640672,-24 13.056382,0 23.640669,10.7452 23.640669,24 0,13.2548 -10.584287,24 -23.640669,24 -13.056384,0 -23.640672,-10.7452 -23.640672,-24 z m 0,0"
       id="path5724"
       sketch:type="MSShapeGroup" />
    <flowRoot
       xml:space="preserve"
       id="flowRoot2985-5"
       style="font-size:40px;font-style:normal;font-weight:normal;line-height:125%;letter-spacing:0px;word-spacing:0px;fill:#000000;fill-opacity:1;stroke:none;font-family:Sans"
       transform="translate(-57.769841,28.157084)"><flowRegion
         id="flowRegion2987-1"><rect
           id="rect2989-7"
           width="157.5838"
           height="115.15739"
           x="157.5838"
           y="264.44321" /></flowRegion><flowPara
         id="flowPara2991-0" /></flowRoot>    <path
       style="fill:#d40000;fill-opacity:1;stroke:none"
       d="m 7.96875,1010.7372 c -4.681694,4.3852 -7.625,10.6483 -7.625,17.625 0,13.2548 10.599866,24 23.65625,24 10.117892,0 18.75144,-6.4583 22.125,-15.5312 l -3.875,2.2187 c -0.13566,0.068 -0.25049,0.115 -0.34375,0.125 -0.24587,-0.034 -0.35805,-0.2175 -0.375,-0.5312 l 0,-0.4375 c 0.0255,-0.2628 0.38809,-0.3407 0.71875,-0.5781 l 4.59766,-3.0821 c 0.22037,-0.8201 0.35869,-1.5428 0.47656,-2.2734 -0.079,5e-4 -0.17999,0.014 -0.26172,0 -1.52505,-0.3742 -3.10518,-1.2177 -4.125,-2.2188 -0.739,2.3125 -1.40934,3.6872 -2.625,3.875 -0.0847,0.029 -0.18068,0.062 -0.28125,0.062 -1.721548,0 -3.101255,-1.0539 -3.71875,-3 -0.271339,0.8702 -0.588147,1.5575 -0.90625,2.1563 -0.318117,0.5894 -0.519857,0.981 -1.0625,1 -1.319224,0.046 -2.335908,-0.3424 -3.09375,-1.25 -0.767212,0.7298 -1.670864,1.0735 -2.71875,1.0625 -0.57966,0 -1.08743,-0.1223 -1.53125,-0.3125 l -0.0625,0 c -0.07822,-0.035 -0.14432,-0.084 -0.21875,-0.125 -0.08571,-0.047 -0.16969,-0.1013 -0.25,-0.1563 -0.151371,-0.1046 -0.306489,-0.2127 -0.4375,-0.3437 -0.269302,0.2221 -0.535931,0.4191 -0.8125,0.5625 -0.187593,-0.031 -0.397123,-0.073 -0.59375,-0.125 -0.02123,0 -0.04117,-0.021 -0.0625,-0.031 -0.16128,-0.045 -0.333541,-0.094 -0.5,-0.1562 -0.442542,-0.1609 -0.907994,-0.3708 -1.375,-0.6875 -0.0012,-0.01 0.0012,-0.021 0,-0.031 -0.342014,-0.2333 -0.680348,-0.5078 -1.03125,-0.8437 -0.842063,-0.8046 -1.848072,-1.5853 -2.4375,-2.0625 -0.07486,3.8361 -1.503802,6.0758 -4.9375,6.4687 -0.412847,0.049 -0.792602,0.057 -1.15625,0.031 -0.114613,0.01 -0.217443,0.01 -0.34375,0 -0.963685,-0.094 -1.807647,-0.5296 -2.5,-1.25 -1.113381,-1.1509 -1.64989,-3.6892 -1.59375,-7.6563 0.0281,-2.1238 -0.05673,-4.2137 -0.28125,-6.2812 -0.167931,-1.5534 -0.311112,-7.2083 -0.4375,-10.2188 z"
       id="path3014"
       inkscape:connector-curvature="0"
       sodipodi:nodetypes="csscccccccccccscccccccccccccccccccccccccc" />
    <path
       style="fill:#ffffff;fill-opacity:1;stroke:none"
       d="M 24.3125 3.40625 C 24.20652 3.427437 24.09168 3.4592 23.96875 3.53125 L 14.9375 8.34375 C 14.60684 8.58115 14.43175 8.83095 14.40625 9.09375 L 14.40625 9.5625 C 14.4232 9.8762 14.53538 10.0285 14.78125 10.0625 C 14.87451 10.054 14.98934 10.03675 15.125 9.96875 L 23.84375 5.59375 C 24.18288 5.37335 24.38395 5.1378 24.46875 4.875 L 24.71875 4.03125 C 24.82048 3.67515 24.80304 3.45725 24.625 3.40625 C 24.53597 3.37655 24.41848 3.385063 24.3125 3.40625 z M 9.84375 4.78125 C 9.0942147 5.3503145 8.3958036 5.9715247 7.71875 6.625 C 7.8453768 9.6290359 7.9878397 15.286 8.15625 16.84375 C 8.3807656 18.91145 8.465596 21.0012 8.4375 23.125 C 8.381359 27.0921 8.917869 29.63035 10.03125 30.78125 C 10.723603 31.50165 11.567565 31.93725 12.53125 32.03125 C 12.657557 32.04075 12.760387 32.04065 12.875 32.03125 C 13.238648 32.05704 13.618403 32.04945 14.03125 32 C 17.464948 31.6071 19.206387 29.49235 19.28125 25.65625 C 19.870678 26.13345 20.564187 26.78915 21.40625 27.59375 C 21.757152 27.929693 22.095486 28.204163 22.4375 28.4375 C 22.4387 28.4451 22.4363 28.46127 22.4375 28.46875 C 22.904506 28.785504 23.369958 28.995393 23.8125 29.15625 C 23.978959 29.21832 24.15122 29.267781 24.3125 29.3125 C 24.33383 29.3183 24.35377 29.33824 24.375 29.34375 C 24.571627 29.39585 24.781157 29.43811 24.96875 29.46875 C 25.245319 29.32535 25.511948 29.12835 25.78125 28.90625 C 25.912261 29.03725 26.067379 29.145363 26.21875 29.25 C 26.29906 29.30532 26.383038 29.358878 26.46875 29.40625 C 26.54318 29.44738 26.609279 29.49648 26.6875 29.53125 C 26.71172 29.52955 26.726 29.53295 26.75 29.53125 C 27.19382 29.721528 27.70159 29.84375 28.28125 29.84375 C 29.329136 29.85475 30.232788 29.51105 31 28.78125 C 31.757842 29.68885 32.774526 30.07765 34.09375 30.03125 C 34.636393 30.01225 35.088133 29.74565 35.40625 29.15625 C 35.724353 28.55745 36.041161 27.8077 36.3125 26.9375 C 36.929995 28.8836 38.059702 29.875 39.78125 29.875 C 39.881824 29.875 39.977747 29.84238 40.0625 29.8125 C 41.278163 29.624676 42.260998 28.40627 43 26.09375 C 44.019819 27.09485 45.287446 27.78205 46.8125 28.15625 C 46.975955 28.19259 47.139344 28.18784 47.28125 28.15625 C 47.395556 27.491435 47.497872 26.807647 47.5625 26.125 C 47.567819 26.063051 47.557646 25.999583 47.5625 25.9375 C 47.582645 25.705586 47.611688 25.483713 47.625 25.25 C 47.628062 25.188679 47.622392 25.123941 47.625 25.0625 C 47.642026 24.711869 47.65625 24.354286 47.65625 24 C 47.65625 23.346083 47.615838 22.703576 47.5625 22.0625 C 47.514439 21.484852 47.460556 20.908885 47.375 20.34375 C 47.365589 20.281223 47.353635 20.218617 47.34375 20.15625 C 47.077143 19.988358 46.808784 19.879125 46.5 19.875 C 45.657943 19.8656 44.842236 20.5277 44.09375 21.875 C 43.167487 23.531 42.590184 24.5037 42.375 24.8125 C 41.673284 25.8322 40.819779 26.36025 39.78125 26.40625 C 38.621071 26.30365 37.786276 25.4843 37.1875 23.875 C 37.10328 23.6504 36.918212 23.53145 36.65625 23.53125 C 36.59076 23.53125 36.552631 23.51525 36.5 23.53125 C 36.342108 23.58125 36.229586 23.70985 36.1875 23.90625 C 35.972301 24.90735 35.75579 25.5663 35.53125 25.875 C 35.306695 26.1842 34.814163 26.30255 34.09375 26.21875 C 33.382672 26.13475 33.006182 25.9024 32.96875 25.5 C 32.95935 25.3504 33.05033 25.0304 33.21875 24.5625 C 33.396506 24.0947 33.327451 23.78725 33 23.65625 C 32.672528 23.52525 32.427755 23.64875 32.25 24.0625 C 31.351802 25.9336 29.827059 26.52045 27.75 25.78125 C 27.84357 25.60345 27.925137 25.44045 28 25.28125 C 28.271318 24.71065 28.261783 24.34975 27.90625 24.21875 C 27.532007 24.08775 27.243446 24.22215 27.09375 24.625 C 26.808768 25.422963 26.044596 25.942489 24.78125 26.21875 C 24.24802 26.114454 23.681178 25.915054 23.09375 25.46875 C 22.728848 25.13195 21.771863 24.36325 20.21875 23.15625 C 17.701945 21.20085 14.959533 19.73555 11.9375 18.78125 C 12.994741 17.92035 15.037477 16.62775 18.125 14.90625 C 22.185716 12.64885 25.867078 11.9675 29.0625 12.0625 C 29.00144 11.7785 28.99925 11.4328 29.03125 11.0625 C 29.03925 10.9268 29.06845 10.80025 29.09375 10.65625 C 29.17005 10.19835 29.29652 9.8021 29.5 9.4375 C 29.5703 9.3086 29.648447 9.19835 29.71875 9.09375 C 28.886094 9.02675 28.043788 8.99625 27.15625 9.03125 C 24.068238 9.14975 20.64522 9.96265 17.0625 12.03125 C 13.426175 14.159878 11.195906 16.259507 10.34375 18.34375 C 10.294394 15.542293 10.125616 8.7305579 9.84375 4.78125 z M 33.25 9.65625 C 33.462822 10.01405 33.598649 10.391 33.625 10.8125 C 33.6626 11.5516 33.476113 12.14155 33.125 12.59375 C 33.1197 12.60375 33.1304 12.618 33.125 12.625 C 38.049583 13.8079 41.338583 16.39195 42.5 15.96875 C 42.883585 15.83775 43.156421 15.5461 43.25 15.125 L 43.65625 13.3125 C 43.831667 12.5542 43.65475 12.1611 43.125 12.1875 C 42.948405 12.1985 42.723703 12.2785 42.46875 12.375 C 41.318196 12.8052 37.971231 10.73935 33.25 9.65625 z M 31.03125 9.90625 C 30.36993 9.88925 30.02543 10.1735 30 10.75 C 29.992 11.1231 30.10951 11.36695 30.40625 11.46875 C 31.00822 11.68075 31.67711 11.67195 32.40625 11.46875 C 32.90647 11.33315 32.92349 10.99445 32.40625 10.46875 C 32.03319 10.09565 31.57386 9.91475 31.03125 9.90625 z M 30.65625 14.9375 C 30.57438 14.9605 30.493633 14.9826 30.4375 15.0625 L 29.0625 17.1875 C 28.931503 17.3747 28.928511 17.5034 29.125 17.625 C 30.313218 18.3361 31.053512 18.7784 31.25 18.9375 C 31.446473 19.0867 31.60029 19.0705 31.75 18.875 L 33.125 16.6875 C 33.227904 16.5004 33.1903 16.3464 33.03125 16.1875 C 32.413742 15.6448 31.723402 15.2181 30.9375 14.9375 C 30.829895 14.9045 30.738118 14.9145 30.65625 14.9375 z M 5.34375 16.75 C 5.2406876 16.76446 5.1329914 16.86255 5.03125 17.0625 L 4.3125 18.5 C 4.106674 18.893 4.0847612 19.326 4.28125 19.8125 C 4.3841529 20.4113 4.500171 20.98865 4.59375 21.53125 C 4.7995714 23.48675 4.9878217 25.30975 5.15625 27.03125 C 5.324643 28.74345 5.6384686 31.3571 6.125 34.875 C 5.5503767 35.565436 4.7782736 36.124014 3.8125 36.5 C 3.9989069 36.809417 4.2066283 37.10628 4.40625 37.40625 C 4.4744486 37.508556 4.5240281 37.617503 4.59375 37.71875 C 4.7432506 37.936326 4.9061601 38.162771 5.0625 38.375 C 5.1934518 38.55247 5.3340055 38.733681 5.46875 38.90625 C 6.1092961 38.410565 6.5825112 37.863062 6.84375 37.25 C 7.517377 35.6407 7.7965758 33.81155 7.65625 31.78125 C 7.5720287 30.55555 7.374416 28.833 7.09375 26.625 C 6.82241 24.4169 6.668591 22.68795 6.59375 21.40625 L 7.28125 20.46875 C 7.5993389 20.05715 7.5491901 19.7025 7.15625 19.375 C 6.5667935 18.8792 6.1556737 18.2234 5.875 17.4375 C 5.6995658 16.946313 5.5155206 16.725899 5.34375 16.75 z M 32.6875 18.15625 C 32.60563 18.17925 32.556133 18.20125 32.5 18.28125 L 31.65625 19.5 C 30.617713 18.817 29.97454 18.65055 29.75 18.96875 L 28.375 21.03125 C 28.244005 21.22765 28.30351 21.40965 28.5 21.53125 C 29.688218 22.24225 30.366019 22.68475 30.5625 22.84375 C 30.758974 22.99305 30.912798 22.91545 31.0625 22.71875 L 31.96875 21.3125 C 32.67045 21.7429 33.103474 22.0379 33.28125 22.1875 C 33.468361 22.3279 33.640895 22.2689 33.78125 22.0625 L 35.1875 19.90625 C 35.290404 19.71905 35.22155 19.5342 35.0625 19.375 C 34.444984 18.8324 33.754652 18.43685 32.96875 18.15625 C 32.861145 18.12325 32.769368 18.13325 32.6875 18.15625 z M 10.40625 21.4375 C 10.524293 21.538968 10.648476 21.627997 10.8125 21.6875 C 15.041477 23.2218 17.476242 24.9412 18.09375 26.8125 C 16.548286 28.097535 14.738991 28.551694 12.65625 28.1875 C 11.823549 28.0285 11.233708 27.61725 10.90625 26.90625 C 10.636617 26.320652 10.479244 24.446086 10.40625 21.4375 z M 45.4375 22.65625 C 45.545773 22.64615 45.641673 22.64045 45.75 22.65625 C 45.894436 22.67731 46.044818 22.74465 46.1875 22.8125 C 46.76758 23.0837 47.0281 23.6142 47 24.4375 C 45.961464 24.2129 45.12049 23.75805 44.4375 23.09375 C 44.774315 22.825381 45.11268 22.686545 45.4375 22.65625 z M 2.71875 23.96875 C 1.82004 24.11295 1.12788 24.7992 0.59375 26.0625 C 0.513205 26.25325 0.48611313 26.439406 0.5 26.625 C 0.5416606 27.181781 1.003295 27.716475 1.90625 28.21875 C 1.6153819 28.57676 1.2932606 28.917794 0.9375 29.25 C 1.0257525 29.651622 1.1119684 30.044669 1.21875 30.4375 C 1.2274985 30.469456 1.2411247 30.499348 1.25 30.53125 C 1.8226982 30.012499 2.3881289 29.450041 2.90625 28.78125 C 3.14363 28.90845 3.38179 29.00875 3.59375 29.09375 C 3.80571 29.17015 3.98085 29.09235 4.125 28.8125 L 4.40625 28.25 C 4.60124 27.8685 4.54359 27.5817 4.1875 27.4375 C 4.08576 27.3867 3.92222 27.32905 3.71875 27.21875 C 4.12577 26.09115 4.09712 25.16405 3.65625 24.46875 C 3.41037 24.08725 3.10027 23.92675 2.71875 23.96875 z M 1.90625 25.78125 C 1.969837 25.74472 2.03016 25.77445 2.09375 25.8125 C 2.20397 25.8803 2.32727 25.9608 2.4375 26.0625 C 2.54773 26.1643 2.59374 26.35105 2.59375 26.65625 C 2.07656 26.39345 1.78655 26.1696 1.71875 26 C 1.78233 25.8919 1.8426625 25.817775 1.90625 25.78125 z M 46.84375 30.1875 L 41.8125 33.34375 C 41.481838 33.58115 41.30671 33.83095 41.28125 34.09375 L 41.28125 34.53125 C 41.2982 34.84495 41.41038 35.0285 41.65625 35.0625 C 41.74951 35.054 41.864341 35.0055 42 34.9375 L 46.0625 32.59375 C 46.06386 32.590155 46.092391 32.597346 46.09375 32.59375 C 46.13679 32.47984 46.177974 32.364887 46.21875 32.25 C 46.241018 32.18826 46.259469 32.124476 46.28125 32.0625 C 46.389148 31.755483 46.466714 31.437643 46.5625 31.125 C 46.636026 30.885015 46.71501 30.649399 46.78125 30.40625 C 46.800966 30.332921 46.824462 30.261048 46.84375 30.1875 z "
       transform="translate(0,1004.3622)"
       id="path3507" />
    <path
       inkscape:export-ydpi="90"
       inkscape:export-xdpi="90"
       inkscape:export-filename="/home/hacko/Projects/git/mishkal (copy)/ar/images/fatha.png"
       style="fill:#000000;fill-opacity:0.15270936;stroke:none"
       inkscape:connector-curvature="0"
       d="m 47.640671,1028.3622 c 0,13.2548 -10.584288,24 -23.64067,24 -4.842304,0 -9.344572,-1.478 -13.092876,-4.0138 l 27.088176,-39.3307 c 5.849519,4.369 9.64537,11.4067 9.64537,19.3445 z m 0,0"
       id="reflec-8"
       sketch:type="MSShapeGroup" />
  </g>
</svg>
