<?xml version="1.0" encoding="UTF-8" standalone="no"?>
<!-- Created with Inkscape (http://www.inkscape.org/) -->

<svg
   xmlns:dc="http://purl.org/dc/elements/1.1/"
   xmlns:cc="http://creativecommons.org/ns#"
   xmlns:rdf="http://www.w3.org/1999/02/22-rdf-syntax-ns#"
   xmlns:svg="http://www.w3.org/2000/svg"
   xmlns="http://www.w3.org/2000/svg"
   xmlns:sodipodi="http://sodipodi.sourceforge.net/DTD/sodipodi-0.dtd"
   xmlns:inkscape="http://www.inkscape.org/namespaces/inkscape"
   width="270"
   height="200"
   id="svg2"
   version="1.1"
   inkscape:version="0.48.4 r9939"
   sodipodi:docname="logo.svg"
   inkscape:export-filename="/home/hacko/Projects/git/mishkal/ar/images/logo.png"
   inkscape:export-xdpi="90"
   inkscape:export-ydpi="90">
  <defs
     id="defs4" />
  <sodipodi:namedview
     id="base"
     pagecolor="#ffffff"
     bordercolor="#666666"
     borderopacity="1.0"
     inkscape:pageopacity="0.0"
     inkscape:pageshadow="2"
     inkscape:zoom="1"
     inkscape:cx="106.49812"
     inkscape:cy="15.132464"
     inkscape:document-units="px"
     inkscape:current-layer="layer1"
     showgrid="false"
     inkscape:snap-bbox="false"
     inkscape:snap-page="true"
     inkscape:window-width="1366"
     inkscape:window-height="715"
     inkscape:window-x="0"
     inkscape:window-y="27"
     inkscape:window-maximized="1"
     showguides="true"
     inkscape:guide-bbox="true" />
  <metadata
     id="metadata7">
    <rdf:RDF>
      <cc:Work
         rdf:about="">
        <dc:format>image/svg+xml</dc:format>
        <dc:type
           rdf:resource="http://purl.org/dc/dcmitype/StillImage" />
        <dc:title></dc:title>
      </cc:Work>
    </rdf:RDF>
  </metadata>
  <g
     inkscape:label="Layer 1"
     inkscape:groupmode="layer"
     id="layer1"
     transform="translate(0,-852.3622)">
    <flowRoot
       xml:space="preserve"
       id="flowRoot2985"
       style="font-size:40px;font-style:normal;font-weight:normal;line-height:125%;letter-spacing:0px;word-spacing:0px;fill:#000000;fill-opacity:1;stroke:none;font-family:Sans"><flowRegion
         id="flowRegion2987"><rect
           id="rect2989"
           width="157.5838"
           height="115.15739"
           x="157.5838"
           y="264.44321" /></flowRegion><flowPara
         id="flowPara2991" /></flowRoot>    <flowRoot
       xml:space="preserve"
       id="flowRoot2985-5"
       style="font-size:40px;font-style:normal;font-weight:normal;line-height:125%;letter-spacing:0px;word-spacing:0px;fill:#000000;fill-opacity:1;stroke:none;font-family:Sans"
       transform="translate(-57.769841,28.157084)"><flowRegion
         id="flowRegion2987-1"><rect
           id="rect2989-7"
           width="157.5838"
           height="115.15739"
           x="157.5838"
           y="264.44321" /></flowRegion><flowPara
         id="flowPara2991-0" /></flowRoot>    <g
       id="g3430"
       transform="matrix(4.4252291,0,0,4.4252291,-369.75402,-3682.6937)">
      <g
         transform="matrix(0.30671316,0,0,0.30671316,4.505595,679.70018)"
         id="g3263">
        <path
           inkscape:connector-curvature="0"
           id="path3201"
           style="font-size:40px;font-style:normal;font-variant:normal;font-weight:bold;font-stretch:normal;line-height:125%;letter-spacing:0px;word-spacing:0px;fill:#d40000;fill-opacity:1;stroke:none;font-family:Amiri;-inkscape-font-specification:Amiri Bold"
           d="m 414.21278,1221.3404 c 0.37924,-0.097 0.69042,0.015 0.93353,0.3355 0.19449,0.2821 0.30146,0.6613 0.3209,1.1378 0.01,0.4668 -0.17018,1.1523 -0.5397,2.0567 0.29174,0.175 0.50566,0.3014 0.64181,0.3792 0.22365,0.1362 0.26255,0.3598 0.11669,0.671 l -0.36466,0.7439 c -0.15559,0.2917 -0.58832,0.2383 -1.29819,-0.1605 -1.09885,1.4101 -2.10044,2.3631 -3.0048,2.859 -0.48621,0.2528 -0.81684,0.2625 -0.99188,0.029 -0.15559,-0.2625 0.0486,-0.598 0.61264,-1.0064 0.91408,-0.6612 1.7455,-1.4684 2.49427,-2.4214 -1.16691,-0.632 -1.52671,-1.444 -1.07939,-2.4359 0.564,-1.2058 1.2836,-1.9351 2.15878,-2.188 m -0.29172,2.2172 c -0.1167,-0.175 -0.30632,-0.2042 -0.56887,-0.087 -0.16532,0.078 -0.27715,0.1459 -0.33549,0.2042 0.17503,0.1945 0.49593,0.423 0.9627,0.6855 0.068,-0.3403 0.0486,-0.6077 -0.0583,-0.8022" />
        <path
           inkscape:connector-curvature="0"
           id="path3203"
           style="font-size:40px;font-style:normal;font-variant:normal;font-weight:bold;font-stretch:normal;line-height:125%;letter-spacing:0px;word-spacing:0px;fill:#d40000;fill-opacity:1;stroke:none;font-family:Amiri;-inkscape-font-specification:Amiri Bold"
           d="m 415.74435,1230.384 c 0.0778,-0.5445 0.29173,-0.8071 0.64181,-0.7877 0.35979,0.02 0.55427,0.2383 0.58345,0.6564 0,0.058 -0.005,0.1119 -0.0146,0.1605 -0.0681,1.0891 -0.27229,2.0032 -0.61263,2.7422 -0.41815,0.9044 -1.02105,1.3906 -1.80871,1.4587 -0.46678,0.029 -0.90437,-0.1653 -1.31278,-0.5835 -0.29174,0.4182 -0.6418,0.7391 -1.05022,0.9627 -0.55429,0.282 -1.09885,0.3209 -1.63368,0.1167 -1.26415,-0.5251 -1.42947,-2.008 -0.49594,-4.4488 0.17504,-0.4376 0.44732,-0.5981 0.81684,-0.4814 0.0292,0.01 0.0535,0.015 0.073,0.015 0.31117,0.1459 0.40842,0.4425 0.29173,0.8898 -0.0583,0.2236 -0.10211,0.423 -0.13128,0.598 -0.0778,0.6321 0.0632,0.9822 0.42301,1.0502 0.50566,0.068 0.93838,-0.3986 1.29819,-1.4003 0.0972,-0.2625 0.18962,-0.5542 0.27714,-0.8752 0.10696,-0.4181 0.3209,-0.6077 0.6418,-0.5688 0.0194,0 0.0341,0 0.0438,0.015 0.32089,0.078 0.47162,0.2577 0.45218,0.5397 -1e-5,0.039 -0.005,0.078 -0.0146,0.1166 l 0,-0.014 c -0.0292,0.1848 -0.0438,0.3501 -0.0438,0.4959 -0.01,0.5057 0.15072,0.7828 0.48135,0.8314 0.0389,10e-5 0.0778,0 0.11669,0.015 0.47648,0.01 0.7828,-0.3743 0.91894,-1.1523 0.0291,-0.107 0.0486,-0.2236 0.0583,-0.3501" />
        <path
           inkscape:connector-curvature="0"
           id="path3207"
           style="font-size:40px;font-style:normal;font-variant:normal;font-weight:bold;font-stretch:normal;line-height:125%;letter-spacing:0px;word-spacing:0px;fill:#d40000;fill-opacity:1;stroke:none;font-family:Amiri;-inkscape-font-specification:Amiri Bold"
           d="m 403.36673,1231.9371 c 0.43758,-0.049 0.79737,0.1459 1.07939,0.5835 0.50565,0.7974 0.5251,1.8428 0.0583,3.1361 0.23336,0.1264 0.4084,0.2188 0.5251,0.2771 0.40841,0.1654 0.50079,0.4668 0.27715,0.9044 l -0.33549,0.6418 c -0.16532,0.3209 -0.36954,0.4376 -0.61263,0.3501 -0.24312,-0.097 -0.50081,-0.2188 -0.77308,-0.3647 -1.37113,1.7698 -2.91729,3.0875 -4.63848,3.9529 -0.51539,0.2529 -0.88005,0.1897 -1.09398,-0.1896 -0.21394,-0.3987 -0.0389,-0.7536 0.52511,-1.0648 1.6823,-0.9821 3.0291,-2.0956 4.04044,-3.3403 -1.38086,-0.7682 -1.88652,-1.5899 -1.51699,-2.4651 0.61262,-1.4489 1.43432,-2.256 2.4651,-2.4214 m -0.16044,3.0924 c -2e-5,-0.3501 -0.0633,-0.5835 -0.18963,-0.7002 -0.12642,-0.1166 -0.25284,-0.2139 -0.37924,-0.2917 -0.14588,-0.088 -0.29174,0 -0.4376,0.248 0.0778,0.1945 0.41327,0.4424 1.00647,0.7439" />
        <path
           inkscape:connector-curvature="0"
           id="path3213"
           style="font-size:40px;font-style:normal;font-variant:normal;font-weight:bold;font-stretch:normal;line-height:125%;letter-spacing:0px;word-spacing:0px;fill:#d40000;fill-opacity:1;stroke:none;font-family:Amiri;-inkscape-font-specification:Amiri Bold"
           d="m 375.62233,1253.8463 c 0.28199,-0.1653 0.5251,-0.2188 0.72932,-0.1605 0.20419,0.068 0.24796,0.3063 0.13127,0.7148 l -0.29172,0.9773 c -0.0973,0.3014 -0.34036,0.5785 -0.72933,0.8314 l -5.83456,3.3549 c -0.15559,0.078 -0.28687,0.1215 -0.39383,0.1312 -0.28201,-0.039 -0.43273,-0.2382 -0.45218,-0.598 l 0.0146,-0.5105 c 0.0292,-0.3015 0.23338,-0.5884 0.61262,-0.8606 l 6.21382,-3.88" />
        <path
           inkscape:connector-curvature="0"
           id="path3221"
           style="font-size:40px;font-style:normal;font-variant:normal;font-weight:bold;font-stretch:normal;line-height:125%;letter-spacing:0px;word-spacing:0px;fill:#d40000;fill-opacity:1;stroke:none;font-family:Amiri;-inkscape-font-specification:Amiri Bold"
           d="m 346.42353,1237.9101 c 0.28199,-0.1652 0.52509,-0.2139 0.72931,-0.1458 0.20421,0.058 0.24796,0.2917 0.13129,0.7001 l -0.29173,0.9773 c -0.0973,0.3015 -0.34036,0.5786 -0.72932,0.8314 l -5.83456,3.3549 c -0.1556,0.078 -0.28688,0.1216 -0.39384,0.1313 -0.282,-0.039 -0.43273,-0.2382 -0.45217,-0.5981 l 0.0146,-0.5105 c 0.0292,-0.3014 0.23337,-0.5883 0.61263,-0.8606 l 6.2138,-3.88" />
        <path
           inkscape:connector-curvature="0"
           id="path3225"
           style="font-size:40px;font-style:normal;font-variant:normal;font-weight:bold;font-stretch:normal;line-height:125%;letter-spacing:0px;word-spacing:0px;fill:#d40000;fill-opacity:1;stroke:none;font-family:Amiri;-inkscape-font-specification:Amiri Bold"
           d="m 338.35698,1237.3576 c 0.28199,-0.1652 0.5251,-0.2139 0.72932,-0.1458 0.2042,0.058 0.24796,0.2917 0.13128,0.7001 l -0.29173,0.9773 c -0.0973,0.3015 -0.34036,0.5786 -0.72932,0.8314 l -5.83456,3.3549 c -0.15559,0.078 -0.28687,0.1216 -0.39383,0.1313 -0.28201,-0.039 -0.43274,-0.2382 -0.45218,-0.5981 l 0.0146,-0.5105 c 0.0292,-0.3014 0.2334,-0.5883 0.61265,-0.8606 l 6.21381,-3.88" />
        <path
           inkscape:connector-curvature="0"
           id="path3229"
           style="font-size:40px;font-style:normal;font-variant:normal;font-weight:bold;font-stretch:normal;line-height:125%;letter-spacing:0px;word-spacing:0px;fill:#d40000;fill-opacity:1;stroke:none;font-family:Amiri;-inkscape-font-specification:Amiri Bold"
           d="m 331.64976,1264.3424 c 0.28199,-0.1653 0.5251,-0.2188 0.72932,-0.1605 0.2042,0.068 0.24796,0.3063 0.13128,0.7148 l -0.29173,0.9773 c -0.0973,0.3014 -0.34036,0.5785 -0.72932,0.8314 l -5.83456,3.3549 c -0.15559,0.078 -0.28687,0.1215 -0.39384,0.1312 -0.28201,-0.039 -0.43273,-0.2382 -0.45218,-0.598 l 0.0146,-0.5105 c 0.0292,-0.3015 0.23337,-0.5884 0.61262,-0.8606 l 6.21381,-3.88" />
        <path
           inkscape:connector-curvature="0"
           id="path3233"
           style="font-size:40px;font-style:normal;font-variant:normal;font-weight:bold;font-stretch:normal;line-height:125%;letter-spacing:0px;word-spacing:0px;fill:#d40000;fill-opacity:1;stroke:none;font-family:Amiri;-inkscape-font-specification:Amiri Bold"
           d="m 322.89791,1239.446 5.38238,-2.3921 c 0.16531,-0.058 0.29659,-0.088 0.39384,-0.088 0.21393,0.039 0.30631,0.1946 0.27714,0.4668 l -0.13128,1.0356 c -0.0486,0.2432 -0.16532,0.4134 -0.35007,0.5106 l -0.0146,0 -5.2511,1.8379 c -0.17504,0.058 -0.32091,0.083 -0.4376,0.073 -0.26255,-0.049 -0.37438,-0.2334 -0.33549,-0.5543 l 0.0583,-0.4084 c 0.0389,-0.2236 0.17503,-0.3841 0.40842,-0.4814" />
        <path
           inkscape:connector-curvature="0"
           id="path3235"
           style="font-size:40px;font-style:normal;font-variant:normal;font-weight:bold;font-stretch:normal;line-height:125%;letter-spacing:0px;word-spacing:0px;fill:#d40000;fill-opacity:1;stroke:none;font-family:Amiri;-inkscape-font-specification:Amiri Bold"
           d="m 327.95939,1242.2612 c 0.0778,-0.5445 0.29172,-0.8071 0.6418,-0.7877 0.35979,0.02 0.55427,0.2383 0.58346,0.6564 -10e-6,0.058 -0.005,0.1119 -0.0146,0.1605 -0.0681,1.0891 -0.2723,2.0032 -0.61263,2.7422 -0.41816,0.9044 -1.02106,1.3906 -1.80872,1.4587 -0.46677,0.029 -0.90437,-0.1653 -1.31277,-0.5835 -0.29174,0.4182 -0.64181,0.7391 -1.05023,0.9627 -0.55429,0.282 -1.09884,0.3209 -1.63367,0.1167 -1.26416,-0.5251 -1.42948,-2.008 -0.49594,-4.4488 0.17503,-0.4376 0.44731,-0.5981 0.81684,-0.4814 0.0292,0.01 0.0535,0.015 0.073,0.015 0.31118,0.1459 0.40842,0.4425 0.29174,0.8898 -0.0583,0.2236 -0.10212,0.423 -0.13128,0.598 -0.0778,0.6321 0.0632,0.9822 0.423,1.0502 0.50566,0.068 0.93839,-0.3986 1.29819,-1.4003 0.0972,-0.2625 0.18962,-0.5542 0.27715,-0.8752 0.10696,-0.4181 0.32089,-0.6077 0.64179,-0.5688 0.0194,0 0.0341,0 0.0438,0.015 0.32089,0.078 0.47162,0.2577 0.45217,0.5397 -1e-5,0.039 -0.005,0.078 -0.0146,0.1166 l 0,-0.014 c -0.0292,0.1848 -0.0438,0.3501 -0.0438,0.4959 -0.01,0.5057 0.15072,0.7828 0.48135,0.8314 0.0389,10e-5 0.0778,0 0.1167,0.015 0.47648,0.01 0.78279,-0.3743 0.91894,-1.1523 0.0292,-0.107 0.0486,-0.2236 0.0583,-0.3501" />
        <path
           inkscape:connector-curvature="0"
           id="path3149"
           style="font-size:40px;font-style:normal;font-variant:normal;font-weight:bold;font-stretch:normal;line-height:125%;letter-spacing:0px;word-spacing:0px;fill:#000000;fill-opacity:1;stroke:none;font-family:Amiri;-inkscape-font-specification:Amiri Bold"
           d="m 426.58671,1231.9667 c 0.40841,-0.8849 0.67098,-0.6855 0.78767,0.598 l 0.71473,7.2932 c 0.59318,6.5639 0.45217,10.6822 -0.42301,12.3547 -0.19449,0.3696 -0.38411,0.5203 -0.56886,0.4522 -0.18477,-0.068 -0.26742,-0.5494 -0.24798,-1.444 0.0292,-1.5365 -0.3209,-4.9983 -1.05022,-10.3856 l -0.6418,-4.9739 c -0.0583,-0.4279 0.005,-0.8363 0.18963,-1.2253 l 1.23984,-2.6693" />
        <path
           inkscape:connector-curvature="0"
           id="path3151"
           style="font-size:40px;font-style:normal;font-variant:normal;font-weight:bold;font-stretch:normal;line-height:125%;letter-spacing:0px;word-spacing:0px;fill:#000000;fill-opacity:1;stroke:none;font-family:Amiri;-inkscape-font-specification:Amiri Bold"
           d="m 420.92719,1235.5258 c 0.81683,5.8735 1.11342,9.909 0.88976,12.1067 -0.34035,3.316 -1.48295,5.1344 -3.4278,5.4553 -0.49594,0.078 -0.77794,-0.2236 -0.84601,-0.9043 -0.0486,-0.4474 -0.0535,-0.9871 -0.0146,-1.6191 0.0389,-0.6418 0.32575,-0.9919 0.86059,-1.0503 1.09884,-0.1166 1.80385,-0.457 2.11503,-1.021 -0.0194,-0.4765 -0.57859,-4.833 -1.67743,-13.0694 -0.11669,-0.7585 -0.20908,-1.2739 -0.27715,-1.5462 -0.2042,-0.4959 -0.19934,-0.9529 0.0146,-1.3711 l 0.7585,-1.4878 c 0.282,-0.5543 0.56887,-0.423 0.8606,0.3938 0.29173,0.8169 0.7439,1.483 1.35653,1.9984 0.40842,0.3403 0.44731,0.7244 0.1167,1.1523 l -0.72932,0.9627" />
        <path
           inkscape:connector-curvature="0"
           id="path3153"
           style="font-size:40px;font-style:normal;font-variant:normal;font-weight:bold;font-stretch:normal;line-height:125%;letter-spacing:0px;word-spacing:0px;fill:#000000;fill-opacity:1;stroke:none;font-family:Amiri;-inkscape-font-specification:Amiri Bold"
           d="m 416.52209,1248.3326 c 0.59317,0.7488 1.21553,1.1475 1.86706,1.1961 0.54455,0.049 0.86545,0.2529 0.9627,0.6127 0.0583,0.2528 0.0486,0.6709 -0.0292,1.2544 -0.0681,0.5834 -0.17019,1.0065 -0.30632,1.269 -0.12642,0.2723 -0.33549,0.4133 -0.62721,0.423 -1.1572,0 -2.23659,-0.6321 -3.23818,-1.8962 -1.22527,1.2641 -2.57693,1.8962 -4.05503,1.8962 -0.42786,-0.01 -0.69527,-0.2771 -0.80224,-0.8022 l -0.26256,-1.2107 c -0.068,-0.3306 0.005,-0.6661 0.21879,-1.0065 0.21394,-0.3403 0.49595,-0.5251 0.84601,-0.5543 2.363,-0.175 3.81678,-0.7584 4.36134,-1.7503 0.16531,-0.3015 0.35493,-0.4522 0.56887,-0.4522 0.29173,0 0.44245,0.1653 0.45218,0.4959 0.0194,0.3209 0.0341,0.496 0.0438,0.5251 m -2.45052,-10.2396 c 0.11669,-0.1653 0.28686,-0.2139 0.51052,-0.1459 0.81684,0.2918 1.54616,0.7196 2.18797,1.2836 0.16531,0.1654 0.19448,0.3453 0.0875,0.5397 l -1.42947,2.2609 c -0.15559,0.2042 -0.3355,0.2285 -0.5397,0.073 -0.20421,-0.1654 -0.92381,-0.6175 -2.15879,-1.3566 -0.20421,-0.1264 -0.23825,-0.2917 -0.1021,-0.4959 l 1.44405,-2.1588" />
        <path
           inkscape:connector-curvature="0"
           id="path3155"
           style="font-size:40px;font-style:normal;font-variant:normal;font-weight:bold;font-stretch:normal;line-height:125%;letter-spacing:0px;word-spacing:0px;fill:#000000;fill-opacity:1;stroke:none;font-family:Amiri;-inkscape-font-specification:Amiri Bold"
           d="m 407.31807,1246.9178 c -1.52673,-1.0503 -3.20902,-1.0357 -5.0469,0.044 -1.82817,1.0697 -3.03884,1.9449 -3.63201,2.6256 1.28359,-0.068 2.79571,-0.3452 4.53637,-0.8315 1.74062,-0.4862 3.12147,-1.0988 4.14254,-1.8378 m -10.88146,5.922 c -0.20422,0.5252 -0.35494,1.0308 -0.45218,1.517 -0.10697,0.5543 -0.3598,0.7974 -0.7585,0.7293 -0.47649,-0.088 -0.58345,-0.6077 -0.32089,-1.5607 0.21393,-0.7488 0.32576,-1.1329 0.33549,-1.1523 -1.05023,-0.3112 -1.94487,-0.9336 -2.6839,-1.8671 -1.06968,1.7115 -2.07127,2.5721 -3.0048,2.5818 -0.47649,0 -0.80226,-0.2674 -0.9773,-0.8022 -0.35979,-1.167 -0.21879,-2.0421 0.42301,-2.6256 0.11669,-0.107 0.28687,-0.1556 0.51052,-0.1459 1.14747,0 2.24631,-0.6077 3.29654,-1.8233 0.15558,-0.1847 0.32575,-0.2674 0.51052,-0.2479 0.16531,0.019 0.37924,0.175 0.6418,0.4667 0.71959,0.8461 1.77467,1.3371 3.16525,1.4733 1.15718,-1.6823 2.53316,-3.209 4.12795,-4.5802 1.59477,-1.3808 2.9902,-2.2122 4.1863,-2.4942 0.91407,-0.1848 1.79897,0.029 2.65473,0.6418 0.86544,0.6029 1.40513,1.3565 1.61909,2.2609 -0.3112,1.4586 -0.77796,2.6887 -1.40029,3.6903 0.84598,0.3015 1.77465,0.5057 2.78599,0.6126 0.4473,0.039 0.70986,0.496 0.78767,1.3712 0.0875,0.914 0.0291,1.5267 -0.17503,1.8379 -0.14589,0.2236 -0.34037,0.3452 -0.58346,0.3646 -1.54618,0.1848 -3.52021,-0.3209 -5.92208,-1.517 -2.44081,1.4587 -5.36294,1.8817 -8.76643,1.269" />
        <path
           inkscape:connector-curvature="0"
           id="path3157"
           style="font-size:40px;font-style:normal;font-variant:normal;font-weight:bold;font-stretch:normal;line-height:125%;letter-spacing:0px;word-spacing:0px;fill:#000000;fill-opacity:1;stroke:none;font-family:Amiri;-inkscape-font-specification:Amiri Bold"
           d="m 387.45138,1249.6454 c -0.37925,-0.8363 -0.85574,-1.2447 -1.42946,-1.2252 -0.35008,0.049 -0.59805,0.1653 -0.74391,0.35 -0.14587,0.1848 -0.15074,0.3647 -0.0146,0.5397 0.31118,0.3987 0.99674,0.5884 2.05669,0.5689 0.12641,0 0.17016,-0.078 0.13128,-0.2334 m 1.56074,3.457 c -0.70988,3.7925 -2.57694,6.3645 -5.60118,7.7162 -0.86547,0.389 -1.67744,0.5835 -2.43593,0.5835 -1.01132,0 -2.35327,-0.7002 -4.02585,-2.1005 -0.30144,-0.2334 -0.39383,-0.4473 -0.27714,-0.6418 0.10697,-0.1945 0.35008,-0.2188 0.72932,-0.073 1.78927,0.6223 3.79247,0.2528 6.0096,-1.1086 2.21713,-1.3517 3.65632,-2.8638 4.31758,-4.5364 -1.517,-0.068 -2.58181,-0.2917 -3.19443,-0.6709 -0.78766,-0.4862 -1.04536,-1.3517 -0.77308,-2.5964 0.44731,-1.9643 1.12801,-3.2285 2.0421,-3.7925 0.98214,-0.5931 1.79898,-0.4667 2.45052,0.3793 0.47648,0.6223 0.80224,1.6969 0.97729,3.2236 0.72931,-0.029 1.14258,0.3257 1.23984,1.0648 0.0583,0.4959 0.01,1.0405 -0.14587,1.6337 -0.15559,0.5834 -0.42301,0.8849 -0.80224,0.9043 -0.16533,0.01 -0.33551,0.015 -0.51053,0.015" />
        <path
           inkscape:connector-curvature="0"
           id="path3159"
           style="font-size:40px;font-style:normal;font-variant:normal;font-weight:bold;font-stretch:normal;line-height:125%;letter-spacing:0px;word-spacing:0px;fill:#000000;fill-opacity:1;stroke:none;font-family:Amiri;-inkscape-font-specification:Amiri Bold"
           d="m 393.97354,1232.4706 c 1.56558,-0.02 2.69359,0.9578 3.38405,2.9318 0.20417,0.5932 0.0583,1.3712 -0.43759,2.3339 -0.48625,0.9627 -0.87522,1.6045 -1.16691,1.9254 -1.56564,1.7114 -4.23495,2.713 -8.00794,3.0048 -2.20743,0.175 -4.20577,0.087 -5.99501,-0.2626 -0.41816,3.0632 -1.07455,5.0518 -1.96917,5.9659 -2.10046,2.1393 -4.73087,3.3208 -7.89125,3.5445 -2.19769,0.1555 -3.89457,-0.2821 -5.09066,-1.3128 -1.61423,-1.4003 -2.26575,-3.3306 -1.95457,-5.7908 0.24311,-1.8865 0.80711,-3.5834 1.69202,-5.0907 0.42786,-0.7196 0.73418,-1.1912 0.91895,-1.4149 0.19448,-0.2236 0.38896,-0.2674 0.58345,-0.1312 0.19448,0.1264 0.19448,0.3695 0,0.7293 -1.02105,1.9643 -1.42461,3.7584 -1.21067,5.3824 0.3209,2.4505 2.09558,3.6709 5.32404,3.6611 2.4116,0 4.53149,-0.6174 6.35967,-1.8524 0.99186,-0.6613 1.58018,-1.235 1.76496,-1.7212 -0.18478,-1.6823 -0.72934,-3.1069 -1.63368,-4.2738 -0.26257,-0.3404 -0.3355,-0.6516 -0.2188,-0.9336 l 1.12316,-2.8297 c 0.23336,-0.5835 0.56399,-0.53 0.99187,0.1604 l 1.05022,1.765 c 0.59317,0.3403 1.71632,0.5397 3.36946,0.598 1.32248,-1.5364 2.88322,-2.9805 4.68224,-4.3321 1.80869,-1.3517 3.25274,-2.0373 4.33216,-2.0567 m 1.38571,4.8281 c -0.98218,-0.7391 -2.24147,-0.9627 -3.77788,-0.671 -1.53646,0.2917 -3.17986,1.0599 -4.9302,2.3046 4.01609,0.039 6.91879,-0.5056 8.70808,-1.6336" />
        <path
           inkscape:connector-curvature="0"
           id="path3161"
           style="font-size:40px;font-style:normal;font-variant:normal;font-weight:bold;font-stretch:normal;line-height:125%;letter-spacing:0px;word-spacing:0px;fill:#000000;fill-opacity:1;stroke:none;font-family:Amiri;-inkscape-font-specification:Amiri Bold"
           d="m 358.60816,1233.9667 c 0.40842,-0.8849 0.67097,-0.6855 0.78766,0.598 l 0.71474,7.2932 c 0.59317,6.5639 0.45217,10.6822 -0.42301,12.3547 -0.19449,0.3696 -0.38411,0.5203 -0.56887,0.4522 -0.18476,-0.068 -0.26742,-0.5494 -0.24797,-1.444 0.0292,-1.5365 -0.3209,-4.9983 -1.05022,-10.3856 l -0.6418,-4.9739 c -0.0583,-0.4279 0.005,-0.8363 0.18962,-1.2253 l 1.23985,-2.6693" />
        <path
           inkscape:connector-curvature="0"
           id="path3163"
           style="font-size:40px;font-style:normal;font-variant:normal;font-weight:bold;font-stretch:normal;line-height:125%;letter-spacing:0px;word-spacing:0px;fill:#000000;fill-opacity:1;stroke:none;font-family:Amiri;-inkscape-font-specification:Amiri Bold"
           d="m 352.94863,1237.5258 c 0.81684,5.8735 1.11343,9.909 0.88977,12.1067 -0.34035,3.316 -1.48295,5.1344 -3.42781,5.4553 -0.49593,0.078 -0.77793,-0.2236 -0.84601,-0.9043 -0.0486,-0.4474 -0.0535,-0.9871 -0.0146,-1.6191 0.0389,-0.6418 0.32577,-0.9919 0.8606,-1.0503 1.09884,-0.1166 1.80385,-0.457 2.11503,-1.021 -0.0194,-0.4765 -0.5786,-4.833 -1.67744,-13.0694 -0.11669,-0.7585 -0.20907,-1.2739 -0.27714,-1.5462 -0.20421,-0.4959 -0.19935,-0.9529 0.0146,-1.3711 l 0.75849,-1.4878 c 0.28201,-0.5543 0.56887,-0.423 0.86061,0.3938 0.29172,0.8169 0.7439,1.483 1.35653,1.9984 0.40842,0.3403 0.44732,0.7244 0.11669,1.1523 l -0.72932,0.9627" />
        <path
           inkscape:connector-curvature="0"
           id="path3165"
           style="font-size:40px;font-style:normal;font-variant:normal;font-weight:bold;font-stretch:normal;line-height:125%;letter-spacing:0px;word-spacing:0px;fill:#000000;fill-opacity:1;stroke:none;font-family:Amiri;-inkscape-font-specification:Amiri Bold"
           d="m 350.38142,1251.5141 c 0.74876,0.01 1.18636,0.3209 1.31278,0.9336 0.0389,0.2042 0.0486,0.4133 0.0292,0.6272 -0.1945,1.3419 -0.63209,2.0129 -1.31278,2.0129 -2.05183,-0.01 -3.91889,-1.021 -5.60118,-3.034 -2.29493,2.0227 -4.08906,3.034 -5.38239,3.034 -0.70987,0 -1.14745,-0.4959 -1.31277,-1.4878 -0.17503,-1.0016 0.0486,-1.6483 0.67097,-1.94 0.19449,-0.088 0.40842,-0.1361 0.6418,-0.1459 1.28361,-0.039 2.363,-0.316 3.23819,-0.8314 -0.37926,-0.3014 -1.20095,-0.5397 -2.4651,-0.7147 -0.41815,-0.058 -0.58832,-0.3404 -0.51053,-0.846 0.14587,-0.8169 0.70988,-1.6094 1.69202,-2.3776 1.86706,-1.4392 3.95777,-1.4975 6.27216,-0.175 1.1669,0.6904 1.65798,1.4197 1.47322,2.1879 -0.16531,0.7391 -0.85088,1.4587 -2.05668,2.1588 0.64179,0.3793 1.7455,0.5786 3.31112,0.598" />
        <path
           inkscape:connector-curvature="0"
           id="path3167"
           style="font-size:40px;font-style:normal;font-variant:normal;font-weight:bold;font-stretch:normal;line-height:125%;letter-spacing:0px;word-spacing:0px;fill:#000000;fill-opacity:1;stroke:none;font-family:Amiri;-inkscape-font-specification:Amiri Bold"
           d="m 335.5908,1252.6227 1.09399,-2.5964 c 0.28199,-0.6709 0.58831,-0.6904 0.91894,-0.058 0.34034,0.6223 0.564,1.0308 0.67097,1.2252 0.11669,0.1848 0.49593,0.2918 1.13775,0.3209 0.71958,0.029 1.09883,0.6175 1.13774,1.765 -0.01,1.1864 -0.37926,1.7893 -1.10857,1.8087 -0.30146,0.01 -0.64667,0.015 -1.03563,0.015 -0.1556,2.2366 -0.8363,4.1328 -2.0421,5.6887 -1.19609,1.5559 -2.4019,2.4262 -3.61743,2.611 -1.21554,0.1847 -2.43107,0.014 -3.6466,-0.5106 -1.21553,-0.5251 -1.96431,-0.88 -2.24631,-1.0648 -0.29173,-0.175 -0.3841,-0.3695 -0.27714,-0.5834 0.0875,-0.1945 0.29659,-0.2529 0.62722,-0.1751 1.15719,0.3015 2.22199,0.3307 3.19442,0.088 1.68229,-0.4085 3.18956,-1.3128 4.52179,-2.7131 1.34193,-1.4003 2.05181,-2.4068 2.12961,-3.0194 0.0292,-0.2334 -0.38411,-0.7877 -1.23985,-1.6629 -0.3209,-0.3306 -0.39384,-0.7098 -0.2188,-1.1377" />
        <path
           inkscape:connector-curvature="0"
           id="path3169"
           style="font-size:40px;font-style:normal;font-variant:normal;font-weight:bold;font-stretch:normal;line-height:125%;letter-spacing:0px;word-spacing:0px;fill:#000000;fill-opacity:1;stroke:none;font-family:Amiri;-inkscape-font-specification:Amiri Bold"
           d="m 326.29133,1253.4541 c -0.72932,-0.5153 -0.89949,-1.269 -0.51052,-2.2609 0.6029,-1.0696 1.19122,-1.3905 1.76495,-0.9627 1.17664,0.8947 2.40675,1.4052 3.69037,1.5316 -0.01,-0.1556 -0.13129,-0.3744 -0.36466,-0.6564 -0.23339,-0.2917 -0.30633,-0.5737 -0.2188,-0.846 l 0.68556,-2.0567 c 0.35979,-1.0696 0.76334,-1.0939 1.21067,-0.073 0.42786,1.1086 0.57859,2.329 0.45218,3.6612 -0.17504,1.9157 -0.84116,2.9707 -1.99834,3.1652 -1.43919,0.2237 -3.00966,-0.2771 -4.71141,-1.5024 m 4.86536,2.1041 c 0.11668,-0.1654 0.28686,-0.214 0.51052,-0.1459 0.81683,0.2917 1.54615,0.7196 2.18796,1.2836 0.1653,0.1653 0.19448,0.3452 0.0875,0.5397 l -1.42946,2.2609 c -0.1556,0.2042 -0.33549,0.2236 -0.5397,0.058 -0.20421,-0.1556 -0.92381,-0.6029 -2.15879,-1.3419 -0.20421,-0.1264 -0.23824,-0.2917 -0.1021,-0.4959 l 1.44406,-2.1588"
           sodipodi:nodetypes="cccccccccccccccccccc" />
        <path
           inkscape:connector-curvature="0"
           id="path3171"
           style="font-size:40px;font-style:normal;font-variant:normal;font-weight:bold;font-stretch:normal;line-height:125%;letter-spacing:0px;word-spacing:0px;fill:#000000;fill-opacity:1;stroke:none;font-family:Amiri;-inkscape-font-specification:Amiri Bold"
           d="m 328.24591,1252.579 c -0.56402,1.0307 -1.15234,1.337 -1.76495,0.9189 -0.25284,-0.1653 -0.50081,-0.3306 -0.74391,-0.4959 -1.29333,1.3711 -2.45535,2.068 -3.48615,2.0858 -0.67095,0.012 -1.08912,-0.5543 -1.25443,-1.692 -0.15559,-1.1377 0.23824,-1.7698 1.18149,-1.8962 1.74065,-0.1945 2.96104,-0.7245 3.66119,-1.59 0.35007,-0.4278 0.70015,-0.4959 1.05022,-0.2042 0.30145,0.2529 0.55428,0.4522 0.7585,0.5981 0.83628,0.7098 1.03563,1.4683 0.59804,2.2755 m -1.91021,2.9401 c 0.11669,-0.1653 0.28687,-0.2139 0.51053,-0.1459 0.81683,0.2918 1.54615,0.7196 2.18796,1.2836 0.16531,0.1653 0.19448,0.3452 0.0875,0.5397 l -1.42947,2.2609 c -0.15559,0.2042 -0.33062,0.2285 -0.52511,0.073 -0.18477,-0.1459 -0.70987,-0.4814 -1.57533,-1.0065 l -1.00647,1.6045 c -0.15558,0.2042 -0.33548,0.2237 -0.53969,0.058 -0.20421,-0.1555 -0.9238,-0.6029 -2.15879,-1.3419 -0.2042,-0.1264 -0.23824,-0.2917 -0.10211,-0.4959 l 1.44406,-2.1588 c 0.11669,-0.1653 0.28687,-0.214 0.51052,-0.1459 0.60291,0.2139 1.15719,0.5008 1.66285,0.8606 l 0.93353,-1.3857"
           sodipodi:nodetypes="cccsccccccccccccccccccccc" />
        <path
           inkscape:connector-curvature="0"
           id="path3173"
           style="font-size:40px;font-style:normal;font-variant:normal;font-weight:bold;font-stretch:normal;line-height:125%;letter-spacing:0px;word-spacing:0px;fill:#000000;fill-opacity:1;stroke:none;font-family:Amiri;-inkscape-font-specification:Amiri Bold"
           d="m 317.91873,1246.8465 c -1.51699,0.4765 -2.55262,1.1183 -3.1069,1.9254 -0.0875,0.1264 -0.0632,0.2285 0.0729,0.3063 1.0016,0.4084 2.11503,0.4425 3.34029,0.1021 -0.0778,-0.6321 -0.17991,-1.41 -0.30631,-2.3338 m 0.7439,-6.0534 c 0.45704,-0.5542 0.73417,-0.282 0.83143,0.8169 l 0.86059,7.1473 c 0.22365,1.8671 0.85086,2.786 1.88165,2.7568 0.46675,-0.01 0.79252,0.214 0.97729,0.671 0.17503,0.496 0.15558,1.1037 -0.0583,1.8233 -0.20422,0.7099 -0.50567,1.0697 -0.90435,1.0794 -1.25444,0 -2.13935,-0.316 -2.65473,-0.9481 -0.51539,-0.6418 -0.87032,-1.7261 -1.0648,-3.2528 -0.7585,1.1183 -1.28847,1.7504 -1.58992,1.8963 -0.30146,0.1458 -0.80712,0.1944 -1.51699,0.1458 -0.94325,-0.068 -1.75523,-0.3209 -2.43593,-0.7585 -0.46676,-0.3014 -0.66611,-0.7293 -0.59804,-1.2836 0.0778,-0.5543 0.30631,-1.1961 0.68556,-1.9254 0.37925,-0.7293 0.69528,-1.235 0.94812,-1.517 0.97242,-1.0307 2.17337,-1.9497 3.60284,-2.7568 -0.15559,-1.5559 -0.10697,-2.4894 0.14586,-2.8006 l 0.88978,-1.094 m -2.69849,-4.726 c 0.11669,-0.1653 0.28686,-0.2139 0.51052,-0.1458 0.81684,0.2917 1.54616,0.7196 2.18797,1.2836 0.1653,0.1653 0.19447,0.3452 0.0875,0.5397 l -1.42946,2.2609 c -0.1556,0.2042 -0.33064,0.2334 -0.52511,0.088 -0.18477,-0.1556 -0.70988,-0.4959 -1.57534,-1.0211 l -1.00646,1.6045 c -0.15559,0.2043 -0.33549,0.2286 -0.5397,0.073 -0.20421,-0.1653 -0.9238,-0.6175 -2.15878,-1.3566 -0.20421,-0.1264 -0.23825,-0.2917 -0.10211,-0.4959 l 1.44406,-2.1588 c 0.11668,-0.1653 0.28686,-0.2139 0.51052,-0.1458 0.6029,0.2139 1.15718,0.5008 1.66285,0.8606 l 0.93353,-1.3858" />
      </g>
      <g
         style="fill:#000000"
         transform="translate(91.393551,18.031223)"
         id="g3412">
        <path
           d="m 44.422761,1027.4711 c 0.68299,0.6643 1.543757,1.1087 2.582293,1.3333 0.0281,-0.8233 -0.247943,-1.3707 -0.828023,-1.6419 -0.57073,-0.2714 -1.155487,-0.1685 -1.75427,0.3086 m 2.063026,-3.2418 c 1.422127,0.019 2.404516,1.7823 2.94718,5.2909 0.04678,0.3181 -0.01401,0.5847 -0.18244,0.7999 l -1.417458,1.8385 c -0.252621,0.3275 -0.589441,0.4444 -1.010462,0.3508 -1.525054,-0.3742 -2.797485,-1.0618 -3.817304,-2.0629 -0.795271,2.4886 -1.866552,3.7471 -3.213835,3.7751 -0.374243,0.011 -0.645568,-0.262 -0.813983,-0.8139 -0.177761,-0.5614 -0.271324,-1.0713 -0.28068,-1.5298 -0.0094,-0.4678 0.191803,-0.7953 0.603468,-0.9824 0.149704,-0.065 0.308755,-0.1027 0.477161,-0.1123 1.038529,-0.046 1.908652,-0.5801 2.610368,-1.5998 0.215184,-0.3088 0.785908,-1.2912 1.712171,-2.9472 0.748486,-1.3473 1.543757,-2.0163 2.385814,-2.0069"
           style="font-size:40px;font-style:normal;font-variant:normal;font-weight:bold;font-stretch:normal;line-height:125%;letter-spacing:0px;word-spacing:0px;fill:#008000;fill-opacity:1;stroke:none;font-family:Amiri;-inkscape-font-specification:Amiri Bold"
           id="path3414"
           inkscape:connector-curvature="0" />
        <path
           sodipodi:nodetypes="sccccccccsscccccccccccccssccccccccccccccccccccccscccccs"
           inkscape:connector-curvature="0"
           id="path3416"
           d="m 30.657062,1019.3002 c -0.08187,0.023 -0.150778,0.058 -0.206911,0.1379 l -1.379411,2.1035 c -0.130997,0.1872 -0.127519,0.3268 0.06897,0.4484 1.188218,0.7111 1.907114,1.1513 2.103602,1.3104 0.196473,0.1492 0.367569,0.1275 0.517279,-0.068 l 1.379411,-2.1726 c 0.102904,-0.1871 0.05559,-0.3583 -0.103456,-0.5172 -0.617508,-0.5427 -1.3177,-0.9609 -2.103602,-1.2415 -0.107605,-0.033 -0.194014,-0.023 -0.275882,0 z m 2.034631,3.207 c -0.08187,0.023 -0.150778,0.058 -0.206911,0.138 l -0.827647,1.207 c -1.038537,-0.683 -1.67215,-0.8355 -1.89669,-0.5173 l -1.379411,2.0691 c -0.130995,0.1964 -0.09303,0.3612 0.103456,0.4828 1.188218,0.711 1.872635,1.1514 2.069116,1.3104 0.196474,0.1493 0.367577,0.093 0.517279,-0.1037 l 0.896618,-1.414 c 0.7017,0.4304 1.132664,0.7126 1.31044,0.8622 0.187111,0.1404 0.376924,0.1027 0.517279,-0.1037 l 1.379411,-2.1725 c 0.102904,-0.1872 0.05559,-0.3582 -0.103456,-0.5174 -0.617516,-0.5426 -1.3177,-0.9608 -2.103602,-1.2414 -0.107605,-0.033 -0.194014,-0.023 -0.275882,0 z m 3.79338,5.3797 c -0.157892,0.05 -0.268281,0.183 -0.310367,0.3794 -0.215199,1.0011 -0.43068,1.6569 -0.65522,1.9656 -0.224555,0.3092 -0.693484,0.4287 -1.413897,0.3449 -0.711078,-0.084 -1.100582,-0.3218 -1.138014,-0.7242 -0.0094,-0.1496 0.07298,-0.4632 0.241397,-0.9311 0.177756,-0.4678 0.12054,-0.7656 -0.206911,-0.8966 -0.327472,-0.131 -0.580921,0 -0.758676,0.4138 -0.898198,1.8711 -2.406027,2.429 -4.483086,1.6898 0.09357,-0.1778 0.166534,-0.3236 0.241397,-0.4828 0.271318,-0.5706 0.252077,-0.9381 -0.103456,-1.0691 -0.374243,-0.131 -0.643465,0.011 -0.793161,0.4139 -0.374243,1.0479 -1.597091,1.6434 -3.655439,1.7932 -0.14034,0.011 -0.289257,0.047 -0.448308,0.1037 -0.467806,0.1684 -0.683316,0.4978 -0.65522,0.9656 0.02811,0.4304 0.06602,0.7316 0.103456,0.9656 0.887558,0.602 1.746796,0.8742 2.517424,1 0.276569,-0.1434 0.558345,-0.3296 0.827647,-0.5517 0.617501,0.6175 1.435047,0.9311 2.482939,0.9311 1.047886,0.011 1.957125,-0.3393 2.724337,-1.0691 0.757842,0.9076 1.78445,1.3224 3.103674,1.276 0.542643,-0.019 0.992324,-0.3072 1.310441,-0.8966 0.318103,-0.5988 0.625278,-1.3369 0.896617,-2.2071 0.617495,1.9461 1.761464,2.9312 3.483012,2.9312 0.402296,0 0.677929,-0.2376 0.827647,-0.7241 0.159066,-0.4865 0.174811,-1.063 0.03449,-1.6898 -0.130999,-0.6269 -0.422415,-0.9695 -0.862132,-1.0346 -1.160179,-0.1026 -2.022104,-0.9426 -2.62088,-2.5519 -0.08422,-0.2246 -0.255317,-0.3447 -0.517279,-0.3449 -0.06549,0 -0.119796,-0.016 -0.172427,0 z"
           style="font-size:40px;font-style:normal;font-variant:normal;font-weight:bold;font-stretch:normal;line-height:125%;letter-spacing:0px;word-spacing:0px;fill:#008000;fill-opacity:1;stroke:none;font-family:Amiri;-inkscape-font-specification:Amiri Bold" />
        <path
           inkscape:connector-curvature="0"
           id="path3418"
           transform="translate(0,1004.3622)"
           d="m 27.15625,9.03125 c -3.088012,0.1185402 -6.51103,0.9314906 -10.09375,3 -3.723742,2.1799 -5.976617,4.33545 -6.78125,6.46875 -0.598784,1.7869 -0.4230729,2.8413 0.53125,3.1875 4.228977,1.5343 6.663742,3.2537 7.28125,5.125 -1.553119,1.2914 -3.372972,1.7492 -5.46875,1.375 l -0.1875,-0.03125 c -0.570724,0 -0.91897,0.61815 -1.03125,1.84375 -0.121623,1.2257 0.264241,1.8784 1.125,2 0.458451,0.065 0.957343,0.065 1.5,0 3.433698,-0.3929 5.175137,-2.50765 5.25,-6.34375 0.589428,0.4772 1.282937,1.1329 2.125,1.9375 1.267847,1.2138 2.493537,1.7004 3.5625,1.875 0.276569,-0.1434 0.543198,-0.3404 0.8125,-0.5625 0.262021,0.262 0.566737,0.4741 0.90625,0.625 0.58361,-0.041 1.104824,-0.09705 1.5,-0.09375 0.39294,0 0.656617,-0.29175 0.84375,-0.84375 0.48651,-1.6093 0.24791,-2.494 -0.78125,-2.625 -1.141462,-0.1123 -2.991618,1.1446 -5.15625,-0.5 -0.364902,-0.3368 -1.321887,-1.1055 -2.875,-2.3125 -2.516805,-1.9554 -5.259217,-3.4207 -8.28125,-4.375 1.057241,-0.8608 3.099977,-2.1535 6.1875,-3.875 4.060716,-2.257315 7.742078,-2.938726 10.9375,-2.84375 -0.06106,-0.284025 -0.06325,-0.629694 -0.03125,-1 0.008,-0.1357 0.0372,-0.26215 0.0625,-0.40625 C 29.17005,10.19845 29.29652,9.8021 29.5,9.4375 29.5703,9.3086264 29.648447,9.1983668 29.71875,9.09375 28.886094,9.026418 28.043788,8.99718 27.15625,9.03125 z m 6.09375,0.625 c 0.212822,0.357872 0.348649,0.734728 0.375,1.15625 0.0376,0.73906 -0.148887,1.32906 -0.5,1.78125 -0.0053,0.0069 0.0054,0.02444 0,0.03125 4.924583,1.182917 8.213583,3.767018 9.375,3.34375 0.383585,-0.131 0.656421,-0.42265 0.75,-0.84375 l 0.40625,-1.8125 c 0.175417,-0.7583 -0.0015,-1.1514 -0.53125,-1.125 -0.176595,0.011 -0.401297,0.0911 -0.65625,0.1875 C 41.318196,12.805249 37.971231,10.739395 33.25,9.65625 z m -2.21875,0.25 C 30.36993,9.88925 30.02543,10.1735 30,10.75 c -0.008,0.3731 0.10951,0.61705 0.40625,0.71875 0.60197,0.212 1.27086,0.2032 2,0 0.50022,-0.1356 0.51724,-0.4743 0,-1 -0.37306,-0.373 -0.83239,-0.554 -1.375,-0.5625 z"
           style="font-size:40px;font-style:normal;font-variant:normal;font-weight:bold;font-stretch:normal;line-height:125%;letter-spacing:0px;word-spacing:0px;fill:#008000;fill-opacity:1;stroke:none;font-family:Amiri;-inkscape-font-specification:Amiri Bold" />
        <path
           d="m 9.5426131,1014.4155 c 0.5239389,1.9367 0.7999489,5.0523 0.8280159,9.3468 0.03743,4.2851 0.21987,6.7831 0.547335,7.4943 0.327458,0.711 0.907544,1.1461 1.740245,1.3051 0.842042,0.159 1.333244,0.8701 1.47359,2.1332 0.09356,0.8982 -0.215198,1.4408 -0.926262,1.628 -0.205837,0.056 -0.435062,0.075 -0.687676,0.056 -0.963685,-0.094 -1.7917,-0.5005 -2.484053,-1.2209 -1.113381,-1.1509 -1.6420054,-3.7097 -1.5858645,-7.6768 0.028096,-2.1238 -0.070206,-4.2196 -0.2947216,-6.2873 -0.2245471,-2.077 -0.4116648,-3.4337 -0.5613673,-4.0699 -0.1403412,-0.6456 -0.1964744,-1.0479 -0.1684073,-1.2069 0.037432,-0.1591 0.08421,-0.2808 0.1403402,-0.365 l 0.8280228,-1.3191 c 0.1309844,-0.1872 0.2619689,-0.3041 0.3929544,-0.3509 0.3648873,-0.1123 0.6175016,0.065 0.7578484,0.5333"
           style="font-size:40px;font-style:normal;font-variant:normal;font-weight:bold;font-stretch:normal;line-height:125%;letter-spacing:0px;word-spacing:0px;fill:#008000;fill-opacity:1;stroke:none;font-family:Amiri;-inkscape-font-specification:Amiri Bold"
           id="path3420"
           inkscape:connector-curvature="0" />
        <path
           d="m 4.585486,1025.8851 c -0.093579,-0.5426 -0.1918176,-1.1133 -0.2947205,-1.7121 -0.1964888,-0.4865 -0.191811,-0.9263 0.014015,-1.3193 l 0.7297823,-1.4315 c 0.2713103,-0.5332 0.5473204,-0.4069 0.8280151,0.379 0.2806737,0.7859 0.7157277,1.4269 1.3051842,1.9227 0.3929401,0.3275 0.4303619,0.6971 0.112273,1.1087 l -0.7017151,0.9263 c 0.074841,1.2817 0.2479287,3.0266 0.5192687,5.2347 0.280666,2.208 0.4631135,3.9249 0.5473348,5.1506 0.1403258,2.0303 -0.126322,3.85 -0.799949,5.4593 -0.4584643,1.0759 -1.4969941,1.9741 -3.1155959,2.6946 -1.6092671,0.7297 -3.07818077,1.0853 -4.40673884,1.0665 -2.68521966,-0.038 -4.42078016,-1.0432 -5.20669556,-3.0174 -0.2713246,-0.6829 -0.4069869,-1.4315 -0.4069869,-2.2454 0,-2.1613 0.6829904,-4.1026 2.0489923,-5.8242 0.2900361,-0.3649 0.5145832,-0.4584 0.6736414,-0.2807 0.1684073,0.1778 0.1496959,0.4491 -0.056114,0.814 -0.9169,1.6279 -1.3332503,2.8536 -1.2490433,3.677 0.2151914,2.1051 1.9226857,3.1015 5.12248859,2.9892 2.76004891,-0.094 4.72015641,-0.8374 5.88032921,-2.2314 -0.4865314,-3.5179 -0.8139958,-6.1329 -0.9823888,-7.8451 -0.1684283,-1.7215 -0.355547,-3.56 -0.5613684,-5.5155"
           style="font-size:40px;font-style:normal;font-variant:normal;font-weight:bold;font-stretch:normal;line-height:125%;letter-spacing:0px;word-spacing:0px;fill:#008000;fill-opacity:1;stroke:none;font-family:Amiri;-inkscape-font-specification:Amiri Bold"
           id="path3422"
           inkscape:connector-curvature="0" />
        <path
           d="m 50.611957,1032.4351 c 0.245863,-0.1441 0.457822,-0.1907 0.635877,-0.1399 0.178041,0.059 0.216191,0.2671 0.114463,0.6232 l -0.254354,0.8521 c -0.08479,0.2628 -0.296751,0.5044 -0.635877,0.7249 l -5.087029,2.925 c -0.135659,0.068 -0.250116,0.106 -0.343379,0.1145 -0.24587,-0.034 -0.37729,-0.2077 -0.394239,-0.5214 l 0.0127,-0.4452 c 0.02546,-0.2628 0.203475,-0.5129 0.534137,-0.7503 l 5.417684,-3.3829"
           style="font-size:40px;font-style:normal;font-variant:normal;font-weight:bold;font-stretch:normal;line-height:125%;letter-spacing:0px;word-spacing:0px;fill:#d40000;fill-opacity:1;stroke:none;font-family:Amiri;-inkscape-font-specification:Amiri Bold"
           id="path3424"
           inkscape:connector-curvature="0" />
        <path
           sodipodi:nodetypes="ccccccccccc"
           d="m 23.982199,1007.8976 c 0.24586,-0.1441 0.45782,-0.1865 0.63588,-0.1271 0.17804,0.051 0.21619,0.2543 0.11446,0.6104 l -0.25435,0.8521 c -0.0848,0.2628 -0.29675,0.5045 -0.63588,0.7249 l -8.71203,4.3625 c -0.13566,0.068 -0.25012,0.106 -0.34338,0.1145 -0.24587,-0.034 -0.37729,-0.2077 -0.39424,-0.5214 l 0.0127,-0.4452 c 0.0255,-0.2628 0.20348,-0.5129 0.53414,-0.7503 l 9.04268,-4.8204"
           style="font-size:40px;font-style:normal;font-variant:normal;font-weight:bold;font-stretch:normal;line-height:125%;letter-spacing:0px;word-spacing:0px;fill:#d40000;fill-opacity:1;stroke:none;font-family:Amiri;-inkscape-font-specification:Amiri Bold"
           id="path3426"
           inkscape:connector-curvature="0" />
        <path
           d="m 2.5513526,1028.5046 c 0.38152,-0.042 0.69522,0.1272 0.9411,0.5087 0.44087,0.6953 0.45782,1.6067 0.0508,2.7343 0.20347,0.1103 0.35609,0.1908 0.45783,0.2416 0.35609,0.1442 0.43663,0.407 0.24164,0.7885 l -0.2925,0.5596 c -0.14415,0.2798 -0.32219,0.3816 -0.53415,0.3052 -0.21196,-0.085 -0.43664,-0.1907 -0.67402,-0.3179 -1.19546,1.5431 -2.54353001,2.6919 -4.04419,3.4465 -0.44936,0.2204 -0.7673,0.1653 -0.95382,-0.1654 -0.18653,-0.3476 -0.0339,-0.657 0.45783,-0.9284 1.46675999,-0.8562 2.64100999,-1.827 3.52277,-2.9123 -1.20394001,-0.6697 -1.64481001,-1.3862 -1.32263001,-2.1492 0.53413,-1.2633 1.25056001,-1.967 2.14927001,-2.1112 m -0.13989,2.6962 c -1e-5,-0.3052 -0.0551,-0.5087 -0.16533,-0.6105 -0.11023,-0.1017 -0.22044,-0.1865 -0.33066,-0.2543 -0.12718,-0.076 -0.25436,0 -0.38152,0.2162 0.0678,0.1696 0.36032,0.3858 0.87751,0.6486"
           style="font-size:40px;font-style:normal;font-variant:normal;font-weight:bold;font-stretch:normal;line-height:125%;letter-spacing:0px;word-spacing:0px;fill:#d40000;fill-opacity:1;stroke:none;font-family:Amiri;-inkscape-font-specification:Amiri Bold"
           id="path3428"
           inkscape:connector-curvature="0" />
      </g>
    </g>
  </g>
</svg>
