<?xml version="1.0" encoding="UTF-8" standalone="no"?>
<!-- Created with Inkscape (http://www.inkscape.org/) -->

<svg
   xmlns:sketch="http://www.bohemiancoding.com/sketch/ns"
   xmlns:dc="http://purl.org/dc/elements/1.1/"
   xmlns:cc="http://creativecommons.org/ns#"
   xmlns:rdf="http://www.w3.org/1999/02/22-rdf-syntax-ns#"
   xmlns:svg="http://www.w3.org/2000/svg"
   xmlns="http://www.w3.org/2000/svg"
   xmlns:sodipodi="http://sodipodi.sourceforge.net/DTD/sodipodi-0.dtd"
   xmlns:inkscape="http://www.inkscape.org/namespaces/inkscape"
   width="48"
   height="48"
   id="svg2"
   version="1.1"
   inkscape:version="0.48.4 r9939"
   sodipodi:docname="print.svg"
   inkscape:export-filename="/home/hacko/Projects/git/mishkal/ar/images/print.png"
   inkscape:export-xdpi="90"
   inkscape:export-ydpi="90">
  <defs
     id="defs4" />
  <sodipodi:namedview
     id="base"
     pagecolor="#ffffff"
     bordercolor="#666666"
     borderopacity="1.0"
     inkscape:pageopacity="0.0"
     inkscape:pageshadow="2"
     inkscape:zoom="7.2407734"
     inkscape:cx="33.6664"
     inkscape:cy="12.688115"
     inkscape:document-units="px"
     inkscape:current-layer="g3903"
     showgrid="false"
     inkscape:snap-bbox="true"
     inkscape:snap-page="true"
     inkscape:window-width="1366"
     inkscape:window-height="715"
     inkscape:window-x="0"
     inkscape:window-y="27"
     inkscape:window-maximized="1" />
  <metadata
     id="metadata7">
    <rdf:RDF>
      <cc:Work
         rdf:about="">
        <dc:format>image/svg+xml</dc:format>
        <dc:type
           rdf:resource="http://purl.org/dc/dcmitype/StillImage" />
        <dc:title></dc:title>
      </cc:Work>
    </rdf:RDF>
  </metadata>
  <g
     inkscape:label="Layer 1"
     inkscape:groupmode="layer"
     id="layer1"
     transform="translate(0,-1004.3622)">
    <flowRoot
       xml:space="preserve"
       id="flowRoot2985"
       style="font-size:40px;font-style:normal;font-weight:normal;line-height:125%;letter-spacing:0px;word-spacing:0px;fill:#000000;fill-opacity:1;stroke:none;font-family:Sans"><flowRegion
         id="flowRegion2987"><rect
           id="rect2989"
           width="157.5838"
           height="115.15739"
           x="157.5838"
           y="264.44321" /></flowRegion><flowPara
         id="flowPara2991" /></flowRoot>    <g
       id="g3903"
       transform="matrix(1,0,0,-1,-0.35932921,2056.7244)"
       inkscape:export-filename="/home/hacko/Projects/git/mishkal (copy)/ar/images/kasra.png"
       inkscape:export-xdpi="90"
       inkscape:export-ydpi="90">
      <path
         sketch:type="MSShapeGroup"
         id="path5724"
         d="m 0.71865842,1028.3622 c 0,-13.2548 10.58428758,-24 23.64067158,-24 13.056382,0 23.64067,10.7452 23.64067,24 0,13.2548 -10.584288,24 -23.64067,24 -13.056384,0 -23.64067158,-10.7452 -23.64067158,-24 z m 0,0"
         inkscape:connector-curvature="0"
         style="fill:#aa0044;stroke:none" />
      <g
         style="fill:#ffffff"
         id="g3063"
         transform="matrix(0.73208749,0,0,-0.73208749,-237.64342,1205.0255)">
        <path
           id="path3055"
           d="m 348.30703,225.57242 19.05803,0 0,4.76451 -19.05803,0 z m 26.20479,7.14676 -33.35156,0 c -1.31023,0 -2.38225,1.07201 -2.38225,2.38226 l 0,11.91127 c 0,1.31024 1.07186,2.38225 2.38225,2.38225 l 7.14677,0 0,9.52902 19.05803,0 0,-9.52902 7.14676,0 c 1.31025,0 2.38226,-1.07201 2.38226,-2.38225 l 0,-11.91127 c 0,-1.31025 -1.07201,-2.38226 -2.38226,-2.38226 z m -9.52901,23.82254 -14.29353,0 0,-11.91127 14.29353,0 0,11.91127 z m 10.06502,-20.24916 c 0,0.95387 -0.77326,1.72714 -1.72706,1.72714 -0.95386,0 -1.72721,-0.77327 -1.72721,-1.72714 0,-0.95387 0.77335,-1.72713 1.72721,-1.72713 0.95387,0 1.72706,0.77326 1.72706,1.72713 z"
           inkscape:connector-curvature="0"
           style="fill:#ffffff" />
      </g>
      <path
         sketch:type="MSShapeGroup"
         id="reflec-8"
         d="m 48,1028.3622 c 0,13.2548 -10.584288,24 -23.64067,24 -4.842304,0 -9.344572,-1.478 -13.092876,-4.0138 L 38.35463,1009.0177 C 44.204149,1013.3867 48,1020.4244 48,1028.3622 z m 0,0"
         inkscape:connector-curvature="0"
         style="fill:#000000;fill-opacity:0.07999998;stroke:none" />
    </g>
  </g>
</svg>
