<?xml version="1.0" encoding="UTF-8" standalone="no"?>
<!-- Created with Inkscape (http://www.inkscape.org/) -->

<svg
   xmlns:sketch="http://www.bohemiancoding.com/sketch/ns"
   xmlns:dc="http://purl.org/dc/elements/1.1/"
   xmlns:cc="http://creativecommons.org/ns#"
   xmlns:rdf="http://www.w3.org/1999/02/22-rdf-syntax-ns#"
   xmlns:svg="http://www.w3.org/2000/svg"
   xmlns="http://www.w3.org/2000/svg"
   xmlns:sodipodi="http://sodipodi.sourceforge.net/DTD/sodipodi-0.dtd"
   xmlns:inkscape="http://www.inkscape.org/namespaces/inkscape"
   width="48"
   height="48"
   id="svg2"
   version="1.1"
   inkscape:version="0.48.4 r9939"
   sodipodi:docname="sukun.svg"
   inkscape:export-filename="/home/hacko/Projects/git/mishkal (copy)/ar/images/sukun.png"
   inkscape:export-xdpi="90"
   inkscape:export-ydpi="90">
  <defs
     id="defs4" />
  <sodipodi:namedview
     id="base"
     pagecolor="#ffffff"
     bordercolor="#666666"
     borderopacity="1.0"
     inkscape:pageopacity="0.0"
     inkscape:pageshadow="2"
     inkscape:zoom="0.45254834"
     inkscape:cx="-511.25604"
     inkscape:cy="127.97893"
     inkscape:document-units="px"
     inkscape:current-layer="layer1"
     showgrid="false"
     inkscape:snap-bbox="true"
     inkscape:snap-page="true"
     inkscape:window-width="1366"
     inkscape:window-height="715"
     inkscape:window-x="0"
     inkscape:window-y="27"
     inkscape:window-maximized="1" />
  <metadata
     id="metadata7">
    <rdf:RDF>
      <cc:Work
         rdf:about="">
        <dc:format>image/svg+xml</dc:format>
        <dc:type
           rdf:resource="http://purl.org/dc/dcmitype/StillImage" />
        <dc:title />
      </cc:Work>
    </rdf:RDF>
  </metadata>
  <g
     inkscape:label="Layer 1"
     inkscape:groupmode="layer"
     id="layer1"
     transform="translate(0,-1004.3622)">
    <flowRoot
       xml:space="preserve"
       id="flowRoot2985"
       style="font-size:40px;font-style:normal;font-weight:normal;line-height:125%;letter-spacing:0px;word-spacing:0px;fill:#000000;fill-opacity:1;stroke:none;font-family:Sans"><flowRegion
         id="flowRegion2987"><rect
           id="rect2989"
           width="157.5838"
           height="115.15739"
           x="157.5838"
           y="264.44321" /></flowRegion><flowPara
         id="flowPara2991" /></flowRoot>    <path
       inkscape:connector-curvature="0"
       id="path3882"
       style="font-size:40px;font-style:normal;font-variant:normal;font-weight:normal;font-stretch:normal;line-height:125%;letter-spacing:0px;word-spacing:0px;fill:#000000;fill-opacity:1;stroke:none;font-family:Droid Arabic Naskh;-inkscape-font-specification:Droid Arabic Naskh"
       d="m -56.731238,1108.4094 0.07562,0.8067 c -1.2e-5,1.2603 -0.579772,2.1678 -1.739283,2.7223 -2.907214,1.3612 -6.965535,2.84 -12.174975,4.4365 l 0.352897,-3.2518 c 4.30199,-1.2771 8.797233,-2.8483 13.48574,-4.7137 m -0.882245,-5.243 0.07562,0.8066 c -1.1e-5,0.5042 -0.126039,1.0335 -0.378105,1.5881 -0.235276,0.5545 -0.689001,0.9747 -1.361177,1.2603 -3.125673,1.3276 -7.150386,2.6888 -12.074148,4.0835 l 0.25207,-3.05 c 4.671692,-1.4116 9.166935,-2.9744 13.485739,-4.6885" />
    <path
       inkscape:connector-curvature="0"
       id="path3884"
       style="font-size:40px;font-style:normal;font-variant:normal;font-weight:normal;font-stretch:normal;line-height:125%;letter-spacing:0px;word-spacing:0px;fill:#000000;fill-opacity:1;stroke:none;font-family:Droid Arabic Naskh;-inkscape-font-specification:Droid Arabic Naskh"
       d="m -43.321119,1107.9557 0.07562,0.8066 c -1.3e-5,1.2772 -0.579772,2.1763 -1.739283,2.6972 -2.907214,1.3612 -6.965535,2.84 -12.174975,4.4364 l 0.352897,-3.2517 c 5.27666,-1.6468 9.771901,-3.2096 13.48574,-4.6885" />
    <path
       inkscape:connector-curvature="0"
       id="path3886"
       style="font-size:40px;font-style:normal;font-variant:normal;font-weight:normal;font-stretch:normal;line-height:125%;letter-spacing:0px;word-spacing:0px;fill:#000000;fill-opacity:1;stroke:none;font-family:Droid Arabic Naskh;-inkscape-font-specification:Droid Arabic Naskh"
       d="m -43.321119,1146.5728 0.07562,0.8066 c -1.3e-5,1.2772 -0.579772,2.1762 -1.739283,2.6972 -2.907214,1.3612 -6.965535,2.84 -12.174975,4.4364 l 0.352897,-3.2517 c 5.27666,-1.6468 9.771901,-3.2097 13.48574,-4.6885" />
    <path
       inkscape:connector-curvature="0"
       id="path3888"
       style="font-size:40px;font-style:normal;font-variant:normal;font-weight:normal;font-stretch:normal;line-height:125%;letter-spacing:0px;word-spacing:0px;fill:#000000;fill-opacity:1;stroke:none;font-family:Droid Arabic Naskh;-inkscape-font-specification:Droid Arabic Naskh"
       d="m -29.911,1150.3287 0.07562,0.8066 c -1.3e-5,1.2603 -0.579773,2.1678 -1.739283,2.7223 -2.907214,1.3612 -6.965535,2.84 -12.174976,4.4365 l 0.352898,-3.2517 c 4.30199,-1.2772 8.797232,-2.8484 13.48574,-4.7137 m -0.882245,-5.2431 0.07562,0.8066 c -1.2e-5,0.5042 -0.12604,1.0335 -0.378105,1.5881 -0.235276,0.5545 -0.689001,0.9746 -1.361177,1.2603 -3.125673,1.3276 -7.150386,2.6888 -12.074149,4.0836 l 0.25207,-3.0501 c 4.671693,-1.4116 9.166936,-2.9744 13.48574,-4.6885" />
    <path
       inkscape:connector-curvature="0"
       id="path3890"
       style="font-size:40px;font-style:normal;font-variant:normal;font-weight:normal;font-stretch:normal;line-height:125%;letter-spacing:0px;word-spacing:0px;fill:#000000;fill-opacity:1;stroke:none;font-family:Droid Arabic Naskh;-inkscape-font-specification:Droid Arabic Naskh"
       d="m 29.529267,1014.9236 c 0.369694,0.7226 0.663774,1.5124 0.882245,2.3694 0.235255,0.8571 0.352887,1.5965 0.352898,2.2182 -1.1e-5,1.0924 -0.352908,2.0838 -1.058693,2.9745 -0.705805,0.8738 -1.588049,1.3107 -2.646734,1.3107 -0.386515,0 -0.815033,-0.092 -1.285557,-0.2773 -0.453731,-0.1848 -0.823433,-0.4705 -1.109107,-0.857 -0.352903,0.8571 -0.840238,1.5124 -1.462006,1.9661 -0.621774,0.4538 -1.268754,0.6807 -1.940938,0.6806 -0.907452,10e-5 -1.646856,-0.2856 -2.218215,-0.857 -0.588162,-0.5713 -0.882243,-1.4032 -0.882245,-2.4955 2e-6,-0.3697 0.06721,-0.8486 0.201655,-1.4368 0.134439,-0.6049 0.344498,-1.1763 0.630176,-1.7141 l 1.033486,0.2017 c -0.168046,0.7226 -0.252069,1.3276 -0.25207,1.8149 1e-6,1.2604 0.546151,1.8905 1.638455,1.8905 0.520942,0 0.949461,-0.1848 1.285556,-0.5545 0.352896,-0.3697 0.529344,-0.8739 0.529348,-1.5125 l -0.100835,-2.3694 1.58804,-1.0335 c 0.168042,1.21 0.352893,2.0502 0.554554,2.5207 0.218456,0.4706 0.504133,0.8319 0.857037,1.0839 0.369697,0.2521 0.848629,0.3781 1.436799,0.3781 0.285672,0 0.554546,-0.092 0.806624,-0.2773 0.268865,-0.1848 0.445314,-0.3696 0.529347,-0.5545 -0.134447,-0.5882 -0.495746,-1.5124 -1.083901,-2.7728 -0.08403,-0.2016 -0.12604,-0.4033 -0.12604,-0.605 -8e-6,-0.4369 0.176441,-0.857 0.529346,-1.2603 0.369695,-0.4201 0.806615,-0.6974 1.310764,-0.8318" />
    <flowRoot
       xml:space="preserve"
       id="flowRoot3867"
       style="font-size:40px;font-style:normal;font-weight:normal;line-height:125%;letter-spacing:0px;word-spacing:0px;fill:#000000;fill-opacity:1;stroke:none;font-family:Sans"
       transform="matrix(1.2905979,0,0,1.2905979,49.562176,1128.0236)"><flowRegion
         id="flowRegion3869"><rect
           id="rect3871"
           width="359.64285"
           height="68.392853"
           x="-28.75"
           y="22.821428" /></flowRegion><flowPara
         id="flowPara3873"
         style="font-style:normal;font-variant:normal;font-weight:normal;font-stretch:normal;font-family:Droid Arabic Naskh;-inkscape-font-specification:Droid Arabic Naskh">ٌ ُ ً َِ ٍ ّ ْ </flowPara></flowRoot>    <g
       id="g3903"
       transform="translate(-0.35932921,0)"
       inkscape:export-filename="/home/hacko/Projects/git/mishkal (copy)/ar/images/dammatan.png"
       inkscape:export-xdpi="90"
       inkscape:export-ydpi="90">
      <path
         sketch:type="MSShapeGroup"
         id="path5724"
         d="m 0.71865842,1028.3622 c 0,-13.2548 10.58428758,-24 23.64067158,-24 13.056382,0 23.64067,10.7452 23.64067,24 0,13.2548 -10.584288,24 -23.64067,24 -13.056384,0 -23.64067158,-10.7452 -23.64067158,-24 z m 0,0"
         inkscape:connector-curvature="0"
         style="fill:#338000;stroke:none;fill-opacity:1"
         inkscape:export-filename="/home/hacko/Projects/git/mishkal (copy)/ar/images/sukun.png"
         inkscape:export-xdpi="90"
         inkscape:export-ydpi="90" />
      <path
         sodipodi:nodetypes="cscsccscsccscscccccccscsccsssccsssc"
         d="m 37.294992,1037.6698 c -4.2e-5,1.1679 -0.560564,1.7517 -1.681579,1.7517 -1.214494,0 -1.82174,-0.5838 -1.821699,-1.7517 -4.1e-5,-1.1677 0.607205,-1.7516 1.821699,-1.7516 1.121015,0 1.681537,0.5839 1.681579,1.7516 m -5.184856,-3.4332 c -2.8e-5,1.1445 -0.56055,1.7167 -1.681565,1.7167 -1.214508,0 -1.821741,-0.5722 -1.821713,-1.7167 -2.8e-5,-1.1911 0.607205,-1.7866 1.821713,-1.7866 1.121015,0 1.681537,0.5955 1.681565,1.7866 m 8.653093,8.6181 c -3.7e-5,1.1911 -0.595594,1.7866 -1.786672,1.7866 -1.144434,0 -1.716644,-0.5955 -1.716602,-1.7866 -4.2e-5,-1.1443 0.595517,-1.7166 1.786675,-1.7166 1.14436,0 1.716562,0.5723 1.716599,1.7166 m -14.748799,-9.9143 c -1.4e-5,1.1912 -0.583898,1.7868 -1.751625,1.7866 -1.167782,2e-4 -1.751666,-0.5954 -1.751638,-1.7866 -2.8e-5,-1.1443 0.583856,-1.7165 1.751638,-1.7166 1.167727,10e-5 1.751611,0.5723 1.751625,1.7166 m -6.060654,1.2962 c -2.8e-5,1.1445 -0.595573,1.7167 -1.786676,1.7167 -1.14442,0 -1.716616,-0.5722 -1.716602,-1.7167 -1.4e-5,-1.1911 0.572182,-1.7866 1.716602,-1.7866 1.191103,0 1.786648,0.5955 1.786676,1.7866 m -5.184856,3.4332 c -1.4e-5,1.1679 -0.583885,1.7517 -1.751639,1.7517 -1.167768,0 -1.75164,-0.5488 -1.75164,-1.6465 0,-1.2379 0.583872,-1.8568 1.75164,-1.8568 1.167754,0 1.751625,0.5839 1.751639,1.7516 m -3.468242,5.1849 c -1.4e-5,1.1911 -0.560535,1.7866 -1.6815788,1.7866 -1.214465,0 -1.821698,-0.5955 -1.821698,-1.7866 0,-1.1443 0.58387,-1.7166 1.751638,-1.7166 1.1677548,0 1.7516248,0.5723 1.7516388,1.7166"
         style="font-size:40px;font-style:normal;font-variant:normal;font-weight:normal;font-stretch:normal;line-height:125%;letter-spacing:0px;word-spacing:0px;fill:#ffffff;fill-opacity:1;stroke:none;font-family:Droid Arabic Naskh;-inkscape-font-specification:Droid Arabic Naskh"
         id="path3876"
         inkscape:connector-curvature="0"
         inkscape:export-filename="/home/hacko/Projects/git/mishkal (copy)/ar/images/fatha.png"
         inkscape:export-xdpi="90"
         inkscape:export-ydpi="90" />
      <path
         sketch:type="MSShapeGroup"
         id="reflec-8"
         d="m 48,1028.3622 c 0,13.2548 -10.584288,24 -23.64067,24 -4.842304,0 -9.344572,-1.478 -13.092876,-4.0138 L 38.35463,1009.0177 C 44.204149,1013.3867 48,1020.4244 48,1028.3622 z m 0,0"
         inkscape:connector-curvature="0"
         style="fill:#000000;fill-opacity:0.07999998;stroke:none"
         inkscape:export-filename="/home/hacko/Projects/git/mishkal (copy)/ar/images/fatha.png"
         inkscape:export-xdpi="90"
         inkscape:export-ydpi="90" />
    </g>
    <path
       inkscape:connector-curvature="0"
       id="path3892"
       style="font-size:40px;font-style:normal;font-variant:normal;font-weight:normal;font-stretch:normal;line-height:125%;letter-spacing:0px;word-spacing:0px;fill:#ffffff;fill-opacity:1;stroke:none;font-family:Droid Arabic Naskh;-inkscape-font-specification:Droid Arabic Naskh"
       d="m 23.855613,1026.6534 c -1.485536,0 -2.676147,-0.5461 -3.571831,-1.6384 -0.873843,-1.1142 -1.310765,-2.4467 -1.310764,-3.9979 -1e-6,-1.267 0.240305,-2.3812 0.72092,-3.3424 0.48061,-0.9831 1.114146,-1.7476 1.900608,-2.2939 0.808298,-0.5461 1.605679,-0.8191 2.392143,-0.8192 0.830144,10e-5 1.649368,0.284 2.457681,0.852 0.830141,0.5463 1.485523,1.3108 1.966146,2.2939 0.502448,0.9612 0.753678,2.0863 0.753688,3.3752 -1e-5,1.5293 -0.546162,2.8401 -1.638454,3.9323 -1.092312,1.0923 -2.31569,1.6384 -3.670137,1.6384 m 3.276908,-5.5708 c -9e-6,-0.2839 -0.174777,-0.688 -0.524305,-1.2123 -0.327699,-0.5243 -0.753696,-0.9503 -1.277995,-1.2781 -0.502466,-0.3495 -1.125077,-0.5243 -1.867838,-0.5243 -0.611694,0 -1.179692,0.2404 -1.703993,0.7209 -0.524308,0.4589 -0.786461,1.0269 -0.786458,1.704 -3e-6,0.7865 0.26215,1.42 0.786458,1.9006 0.546147,0.4806 1.310759,0.721 2.293836,0.721 0.764607,0 1.463679,-0.2294 2.097221,-0.6882 0.655374,-0.4806 0.983065,-0.9285 0.983074,-1.3436" />
  </g>
</svg>
