<?xml version="1.0" encoding="UTF-8" standalone="no"?>
<!-- Created with Inkscape (http://www.inkscape.org/) -->

<svg
   xmlns:sketch="http://www.bohemiancoding.com/sketch/ns"
   xmlns:dc="http://purl.org/dc/elements/1.1/"
   xmlns:cc="http://creativecommons.org/ns#"
   xmlns:rdf="http://www.w3.org/1999/02/22-rdf-syntax-ns#"
   xmlns:svg="http://www.w3.org/2000/svg"
   xmlns="http://www.w3.org/2000/svg"
   xmlns:sodipodi="http://sodipodi.sourceforge.net/DTD/sodipodi-0.dtd"
   xmlns:inkscape="http://www.inkscape.org/namespaces/inkscape"
   width="48"
   height="48"
   id="svg2"
   version="1.1"
   inkscape:version="0.48.4 r9939"
   sodipodi:docname="tatweel.svg"
   inkscape:export-filename="/home/hacko/Projects/git/mishkal/ar/images/tatweel.png"
   inkscape:export-xdpi="90"
   inkscape:export-ydpi="90">
  <defs
     id="defs4" />
  <sodipodi:namedview
     id="base"
     pagecolor="#ffffff"
     bordercolor="#666666"
     borderopacity="1.0"
     inkscape:pageopacity="0.0"
     inkscape:pageshadow="2"
     inkscape:zoom="4.160951"
     inkscape:cx="63.633049"
     inkscape:cy="51.723484"
     inkscape:document-units="px"
     inkscape:current-layer="layer1"
     showgrid="false"
     inkscape:snap-bbox="true"
     inkscape:snap-page="true"
     inkscape:window-width="1366"
     inkscape:window-height="715"
     inkscape:window-x="0"
     inkscape:window-y="27"
     inkscape:window-maximized="1" />
  <metadata
     id="metadata7">
    <rdf:RDF>
      <cc:Work
         rdf:about="">
        <dc:format>image/svg+xml</dc:format>
        <dc:type
           rdf:resource="http://purl.org/dc/dcmitype/StillImage" />
        <dc:title></dc:title>
      </cc:Work>
    </rdf:RDF>
  </metadata>
  <g
     inkscape:label="Layer 1"
     inkscape:groupmode="layer"
     id="layer1"
     transform="translate(0,-1004.3622)">
    <flowRoot
       xml:space="preserve"
       id="flowRoot2985"
       style="font-size:40px;font-style:normal;font-weight:normal;line-height:125%;letter-spacing:0px;word-spacing:0px;fill:#000000;fill-opacity:1;stroke:none;font-family:Sans"><flowRegion
         id="flowRegion2987"><rect
           id="rect2989"
           width="157.5838"
           height="115.15739"
           x="157.5838"
           y="264.44321" /></flowRegion><flowPara
         id="flowPara2991" /></flowRoot>    <path
       inkscape:connector-curvature="0"
       id="path3890"
       style="font-size:40px;font-style:normal;font-variant:normal;font-weight:normal;font-stretch:normal;line-height:125%;letter-spacing:0px;word-spacing:0px;fill:#000000;fill-opacity:1;stroke:none;font-family:Droid Arabic Naskh;-inkscape-font-specification:Droid Arabic Naskh"
       d="m 29.529267,1014.9236 c 0.369694,0.7226 0.663774,1.5124 0.882245,2.3694 0.235255,0.8571 0.352887,1.5965 0.352898,2.2182 -1.1e-5,1.0924 -0.352908,2.0838 -1.058693,2.9745 -0.705805,0.8738 -1.588049,1.3107 -2.646734,1.3107 -0.386515,0 -0.815033,-0.092 -1.285557,-0.2773 -0.453731,-0.1848 -0.823433,-0.4705 -1.109107,-0.857 -0.352903,0.8571 -0.840238,1.5124 -1.462006,1.9661 -0.621774,0.4538 -1.268754,0.6807 -1.940938,0.6806 -0.907452,10e-5 -1.646856,-0.2856 -2.218215,-0.857 -0.588162,-0.5713 -0.882243,-1.4032 -0.882245,-2.4955 2e-6,-0.3697 0.06721,-0.8486 0.201655,-1.4368 0.134439,-0.6049 0.344498,-1.1763 0.630176,-1.7141 l 1.033486,0.2017 c -0.168046,0.7226 -0.252069,1.3276 -0.25207,1.8149 1e-6,1.2604 0.546151,1.8905 1.638455,1.8905 0.520942,0 0.949461,-0.1848 1.285556,-0.5545 0.352896,-0.3697 0.529344,-0.8739 0.529348,-1.5125 l -0.100835,-2.3694 1.58804,-1.0335 c 0.168042,1.21 0.352893,2.0502 0.554554,2.5207 0.218456,0.4706 0.504133,0.8319 0.857037,1.0839 0.369697,0.2521 0.848629,0.3781 1.436799,0.3781 0.285672,0 0.554546,-0.092 0.806624,-0.2773 0.268865,-0.1848 0.445314,-0.3696 0.529347,-0.5545 -0.134447,-0.5882 -0.495746,-1.5124 -1.083901,-2.7728 -0.08403,-0.2016 -0.12604,-0.4033 -0.12604,-0.605 -8e-6,-0.4369 0.176441,-0.857 0.529346,-1.2603 0.369695,-0.4201 0.806615,-0.6974 1.310764,-0.8318" />
    <path
       inkscape:export-ydpi="90"
       inkscape:export-xdpi="90"
       inkscape:export-filename="/home/hacko/Projects/git/mishkal (copy)/ar/images/sukun.png"
       style="fill:#d45500;fill-opacity:1;stroke:none"
       inkscape:connector-curvature="0"
       d="m 0.35932921,1028.3622 c 0,-13.2548 10.58428779,-24 23.64067179,-24 13.056382,0 23.64067,10.7452 23.64067,24 0,13.2548 -10.584288,24 -23.64067,24 -13.056384,0 -23.64067179,-10.7452 -23.64067179,-24 z m 0,0"
       id="path5724"
       sketch:type="MSShapeGroup" />
    <g
       style="fill:#552200"
       id="g3098"
       transform="matrix(-0.14835025,0.32466543,0.32466543,0.14835025,-5.573032,884.88434)">
      <path
         id="path3090"
         d="m 308.21331,207.9812 0,-11.27669 17.43453,17.43453 -17.43453,17.43453 0,-11.52422 c -20.28353,-0.47591 -19.41353,13.79289 -14.25,23.14724 -12.74501,-13.77573 -10.03848,-35.84839 14.25,-35.21539 z"
         inkscape:connector-curvature="0"
         style="fill:#552200" />
    </g>
    <path
       inkscape:connector-curvature="0"
       id="path3142"
       style="font-size:40px;font-style:normal;font-variant:normal;font-weight:normal;font-stretch:normal;line-height:125%;letter-spacing:0px;word-spacing:0px;fill:#ffffff;fill-opacity:1;stroke:none;font-family:Droid Arabic Naskh;-inkscape-font-specification:Droid Arabic Naskh"
       d="m 30.668931,1027.6178 c -3e-6,-3.0338 1.529943,-6.0156 4.589844,-8.9453 l -0.195313,-0.1758 c -0.625007,-0.4166 -0.937506,-1.0612 -0.9375,-1.9336 -6e-6,-0.4948 0.117181,-0.9505 0.351563,-1.3672 0.247388,-0.4296 0.553378,-0.7161 0.917968,-0.8593 1.432283,0.4687 2.832021,1.3216 4.199219,2.5586 1.380195,1.2239 2.499986,2.6172 3.359375,4.1796 0.87238,1.5495 1.308577,2.9493 1.308594,4.1993 -1.7e-5,0.9244 -0.3646,2.2005 -1.09375,3.8281 -0.716161,1.6276 -1.419285,2.6693 -2.109375,3.125 -1.289075,0.8724 -2.832042,1.3086 -4.628906,1.3086 -1.809903,0 -3.222662,-0.5339 -4.238282,-1.6016 -1.015628,-1.0677 -1.52344,-2.5065 -1.523437,-4.3164 m 11.269531,0.078 c -0.638034,-3.0468 -2.408866,-5.7226 -5.3125,-8.0273 -1.145841,1.0807 -2.070319,2.2135 -2.773437,3.3984 -0.69011,1.1719 -1.035162,2.2266 -1.035157,3.1641 -5e-6,1.1328 0.358068,2.0117 1.074219,2.6367 0.716139,0.612 1.731763,0.918 3.046875,0.918 0.755198,0 1.608062,-0.1953 2.558594,-0.586 0.963529,-0.4036 1.77733,-0.9049 2.441406,-1.5039" />
    <path
       style="font-size:40px;font-style:normal;font-variant:normal;font-weight:normal;font-stretch:normal;line-height:125%;letter-spacing:0px;word-spacing:0px;fill:#ffffff;fill-opacity:1;stroke:none;font-family:Droid Arabic Naskh;-inkscape-font-specification:Droid Arabic Naskh"
       d="M 12.78125 20.96875 L 11.71875 24.0625 C 10.950515 24.4531 10.263016 25.0547 9.625 25.875 C 8.986975 26.6953 8.45833 27.6328 8.09375 28.6875 C 7.729164 29.7292 7.562497 30.7135 7.5625 31.625 C 7.562497 33.6562 8.528642 35.48965 10.46875 37.15625 C 8.919267 37.55995 7.106769 37.78125 5.0625 37.78125 L 4.90625 37.78125 L 4.65625 37.78125 C 5.52578 39.037167 6.5087117 40.186953 7.59375 41.25 C 8.3376232 41.170972 9.0505497 41.056168 9.71875 40.90625 C 11.111974 40.58075 12.455722 40.02335 13.71875 39.28125 C 16.635406 40.73955 20.106756 41.7057 24.15625 42.1875 C 25.757792 39.4531 26.562479 37.37765 26.5625 35.90625 C 26.562479 33.80995 25.989562 31.7552 24.84375 29.75 C 23.697898 27.7448 22.078109 25.9739 19.96875 24.4375 C 17.859363 22.901 15.45051 21.73705 12.78125 20.96875 z M 13.59375 26.8125 C 14.296866 26.8125 14.927074 27.2057 15.5 28 C 16.072906 28.7813 16.374989 29.59635 16.375 30.46875 C 16.374989 32.57805 15.575511 34.24475 14 35.46875 C 12.216139 34.37495 10.643224 33.0729 9.25 31.5625 C 9.510412 30.625 9.874995 29.8281 10.34375 29.125 C 10.825515 28.4088 11.338535 27.8411 11.9375 27.4375 C 12.536451 27.0208 13.09895 26.8125 13.59375 26.8125 z M 18.125 26.9375 C 19.895819 28.4479 21.325504 30.28135 22.40625 32.46875 C 23.499981 34.64325 24.031231 36.7318 24.03125 38.75 C 21.283838 38.4115 18.854153 37.78125 16.71875 36.84375 C 18.320299 35.07295 19.124986 33.0078 19.125 30.625 C 19.124986 29.3229 18.789049 28.0963 18.125 26.9375 z "
       transform="translate(0,1004.3622)"
       id="path3144" />
    <path
       inkscape:export-ydpi="90"
       inkscape:export-xdpi="90"
       inkscape:export-filename="/home/hacko/Projects/git/mishkal (copy)/ar/images/fatha.png"
       style="fill:#000000;fill-opacity:0.07999998;stroke:none"
       inkscape:connector-curvature="0"
       d="m 47.640671,1028.3622 c 0,13.2548 -10.584288,24 -23.64067,24 -4.842304,0 -9.344572,-1.478 -13.092876,-4.0138 l 27.088176,-39.3307 c 5.849519,4.369 9.64537,11.4067 9.64537,19.3445 z m 0,0"
       id="reflec-8"
       sketch:type="MSShapeGroup" />
  </g>
</svg>
