<?xml version="1.0" encoding="UTF-8" standalone="no"?>
<!-- Created with Inkscape (http://www.inkscape.org/) -->

<svg
   xmlns:sketch="http://www.bohemiancoding.com/sketch/ns"
   xmlns:dc="http://purl.org/dc/elements/1.1/"
   xmlns:cc="http://creativecommons.org/ns#"
   xmlns:rdf="http://www.w3.org/1999/02/22-rdf-syntax-ns#"
   xmlns:svg="http://www.w3.org/2000/svg"
   xmlns="http://www.w3.org/2000/svg"
   xmlns:sodipodi="http://sodipodi.sourceforge.net/DTD/sodipodi-0.dtd"
   xmlns:inkscape="http://www.inkscape.org/namespaces/inkscape"
   width="48"
   height="48"
   id="svg2"
   version="1.1"
   inkscape:version="0.48.4 r9939"
   sodipodi:docname="zwj.svg"
   inkscape:export-filename="/home/hacko/Projects/git/mishkal/ar/images/zwj.png"
   inkscape:export-xdpi="90"
   inkscape:export-ydpi="90">
  <defs
     id="defs4" />
  <sodipodi:namedview
     id="base"
     pagecolor="#ffffff"
     bordercolor="#666666"
     borderopacity="1.0"
     inkscape:pageopacity="0.0"
     inkscape:pageshadow="2"
     inkscape:zoom="2.9422367"
     inkscape:cx="36.528834"
     inkscape:cy="49.33697"
     inkscape:document-units="px"
     inkscape:current-layer="layer1"
     showgrid="false"
     inkscape:snap-bbox="true"
     inkscape:snap-page="true"
     inkscape:window-width="1366"
     inkscape:window-height="715"
     inkscape:window-x="0"
     inkscape:window-y="27"
     inkscape:window-maximized="1" />
  <metadata
     id="metadata7">
    <rdf:RDF>
      <cc:Work
         rdf:about="">
        <dc:format>image/svg+xml</dc:format>
        <dc:type
           rdf:resource="http://purl.org/dc/dcmitype/StillImage" />
        <dc:title></dc:title>
      </cc:Work>
    </rdf:RDF>
  </metadata>
  <g
     inkscape:label="Layer 1"
     inkscape:groupmode="layer"
     id="layer1"
     transform="translate(0,-1004.3622)">
    <flowRoot
       xml:space="preserve"
       id="flowRoot2985"
       style="font-size:40px;font-style:normal;font-weight:normal;line-height:125%;letter-spacing:0px;word-spacing:0px;fill:#000000;fill-opacity:1;stroke:none;font-family:Sans"><flowRegion
         id="flowRegion2987"><rect
           id="rect2989"
           width="157.5838"
           height="115.15739"
           x="157.5838"
           y="264.44321" /></flowRegion><flowPara
         id="flowPara2991" /></flowRoot>    <path
       inkscape:connector-curvature="0"
       id="path3890"
       style="font-size:40px;font-style:normal;font-variant:normal;font-weight:normal;font-stretch:normal;line-height:125%;letter-spacing:0px;word-spacing:0px;fill:#000000;fill-opacity:1;stroke:none;font-family:Droid Arabic Naskh;-inkscape-font-specification:Droid Arabic Naskh"
       d="m 29.529267,1016.9236 c 0.369694,0.7226 0.663774,1.5124 0.882245,2.3694 0.235255,0.8571 0.352887,1.5965 0.352898,2.2182 -1.1e-5,1.0924 -0.352908,2.0838 -1.058693,2.9745 -0.705805,0.8738 -1.588049,1.3107 -2.646734,1.3107 -0.386515,0 -0.815033,-0.092 -1.285557,-0.2773 -0.453731,-0.1848 -0.823433,-0.4705 -1.109107,-0.857 -0.352903,0.8571 -0.840238,1.5124 -1.462006,1.9661 -0.621774,0.4538 -1.268754,0.6807 -1.940938,0.6806 -0.907452,10e-5 -1.646856,-0.2856 -2.218215,-0.857 -0.588162,-0.5713 -0.882243,-1.4032 -0.882245,-2.4955 2e-6,-0.3697 0.06721,-0.8486 0.201655,-1.4368 0.134439,-0.6049 0.344498,-1.1763 0.630176,-1.7141 l 1.033486,0.2017 c -0.168046,0.7226 -0.252069,1.3276 -0.25207,1.8149 1e-6,1.2604 0.546151,1.8905 1.638455,1.8905 0.520942,0 0.949461,-0.1848 1.285556,-0.5545 0.352896,-0.3697 0.529344,-0.8739 0.529348,-1.5125 l -0.100835,-2.3694 1.58804,-1.0335 c 0.168042,1.21 0.352893,2.0502 0.554554,2.5207 0.218456,0.4706 0.504133,0.8319 0.857037,1.0839 0.369697,0.2521 0.848629,0.3781 1.436799,0.3781 0.285672,0 0.554546,-0.092 0.806624,-0.2773 0.268865,-0.1848 0.445314,-0.3696 0.529347,-0.5545 -0.134447,-0.5882 -0.495746,-1.5124 -1.083901,-2.7728 -0.08403,-0.2016 -0.12604,-0.4033 -0.12604,-0.605 -8e-6,-0.4369 0.176441,-0.857 0.529346,-1.2603 0.369695,-0.4201 0.806615,-0.6974 1.310764,-0.8318" />
    <path
       inkscape:export-ydpi="90"
       inkscape:export-xdpi="90"
       inkscape:export-filename="/home/hacko/Projects/git/mishkal (copy)/ar/images/sukun.png"
       style="fill:#d45500;fill-opacity:1;stroke:none"
       inkscape:connector-curvature="0"
       d="m 0.35932921,1028.3622 c 0,-13.2548 10.58428779,-24 23.64067179,-24 13.056382,0 23.64067,10.7452 23.64067,24 0,13.2548 -10.584288,24 -23.64067,24 -13.056384,0 -23.64067179,-10.7452 -23.64067179,-24 z m 0,0"
       id="path5724"
       sketch:type="MSShapeGroup" />
    <path
       inkscape:connector-curvature="0"
       id="path3231"
       style="font-size:40px;font-style:normal;font-variant:normal;font-weight:bold;font-stretch:normal;line-height:125%;letter-spacing:0px;word-spacing:0px;fill:#ffffff;fill-opacity:1;stroke:none;font-family:Droid Arabic Naskh;-inkscape-font-specification:Droid Arabic Naskh Bold"
       d="m 33.314892,1037.3359 c -1.78405,0 -3.14273,-0.5245 -4.07604,-1.5734 -0.93332,-1.0407 -1.39998,-2.5605 -1.39998,-4.5592 0,-1.0325 0.24366,-2.4696 0.73096,-4.3115 l 1.32565,0.3222 c -0.27257,0.9168 -0.40885,1.7055 -0.40885,2.3663 0,1.4289 0.318,2.4861 0.95397,3.1717 0.63597,0.6937 1.61885,1.0406 2.94862,1.0406 1.62711,0 2.99405,-0.2106 4.10083,-0.6319 1.10675,-0.4212 2.15157,-1.0901 3.13446,-2.007 -0.26431,-0.5781 -0.54513,-1.1398 -0.84247,-1.6849 -0.29734,-0.5452 -0.56991,-1.0531 -0.81767,-1.5239 -0.24781,-0.4707 -0.45429,-0.8961 -0.61947,-1.2761 -0.15694,-0.3881 -0.2354,-0.7145 -0.23539,-0.9787 -1e-5,-1.6684 1.00764,-2.9775 3.02297,-3.9274 0.0908,0.702 0.20233,1.4248 0.3345,2.1681 0.13213,0.7433 0.26015,1.4785 0.38406,2.2053 0.12388,0.7186 0.22713,1.4124 0.30974,2.0814 0.0908,0.6607 0.13626,1.2636 0.13627,1.8088 -1e-5,1.3215 -0.39647,2.548 -1.18936,3.6796 -0.79292,1.1315 -1.87904,2.0195 -3.25836,2.6636 -1.37108,0.6443 -2.88255,0.9664 -4.53444,0.9664 m 3.19641,-15.5113 c -0.60294,0.8921 -1.42476,1.8254 -2.46544,2.8001 -1.23892,-1.0243 -2.14333,-1.8626 -2.71324,-2.5151 1.19762,-1.1976 2.08551,-2.1267 2.66368,-2.7876 0.68552,0.7765 1.52385,1.6107 2.515,2.5026" />
    <path
       style="font-size:40px;font-style:normal;font-variant:normal;font-weight:bold;font-stretch:normal;line-height:125%;letter-spacing:0px;word-spacing:0px;fill:#ffffff;fill-opacity:1;stroke:none;font-family:Droid Arabic Naskh;-inkscape-font-specification:Droid Arabic Naskh Bold"
       d="M 18.65625 17.6875 C 17.52468 17.6875 16.18601 18.32185 14.625 19.59375 C 13.06394 20.85755 11.22936 22.86805 9.15625 25.59375 L 8.25 25.3125 C 8.03523 24.0323 7.85736 22.97395 7.75 22.15625 C 5.73468 23.10615 4.74999 24.42535 4.75 26.09375 C 4.74999 26.35795 4.81181 26.6744 4.96875 27.0625 C 5.13393 27.4425 5.34596 27.87305 5.59375 28.34375 C 5.84152 28.81455 6.10889 29.3298 6.40625 29.875 C 6.70357 30.4201 6.98567 30.9844 7.25 31.5625 C 6.26711 32.4794 5.23177 33.1413 4.125 33.5625 C 3.6410726 33.746712 3.0866513 33.869044 2.5 33.96875 C 2.9617577 34.993534 3.5000817 35.96504 4.09375 36.90625 C 4.2191001 36.851579 4.343995 36.808632 4.46875 36.75 C 5.84806 36.1059 6.95708 35.22525 7.75 34.09375 C 8.54289 32.96215 8.93748 31.759 8.9375 30.4375 C 8.9375 30.1319 8.90975 29.60825 8.84375 28.90625 C 9.71098 29.13745 10.63206 29.3219 11.65625 29.4375 C 12.68041 29.5614 13.65393 29.625 14.5625 29.625 C 16.32999 29.625 18.05031 29.32155 19.71875 28.71875 C 21.39538 28.11575 22.65104 27.3037 23.46875 26.3125 C 24.28641 25.3131 24.68747 24.1635 24.6875 22.875 C 24.68747 22.2885 24.3288 21.58605 23.59375 20.71875 C 22.85862 19.85145 22.02704 19.1324 21.09375 18.5625 C 20.16867 17.9842 19.35001 17.6875 18.65625 17.6875 z M 17.90625 21.1875 C 19.50029 21.1875 21.19294 22.2017 22.96875 24.25 C 21.30031 25.0429 19.8621 25.5859 18.65625 25.875 C 17.45859 26.1641 16.20475 26.3125 14.875 26.3125 C 13.62781 26.3125 12.37863 26.22145 11.15625 26.03125 C 13.93967 22.80185 16.18826 21.1875 17.90625 21.1875 z "
       transform="translate(0,1004.3622)"
       id="path3233" />
    <path
       style="font-size:medium;font-style:normal;font-variant:normal;font-weight:normal;font-stretch:normal;text-indent:0;text-align:start;text-decoration:none;line-height:normal;letter-spacing:normal;word-spacing:normal;text-transform:none;direction:ltr;block-progression:tb;writing-mode:lr-tb;text-anchor:start;baseline-shift:baseline;color:#000000;fill:#552200;fill-opacity:1;stroke:none;stroke-width:1px;marker:none;visibility:visible;display:inline;overflow:visible;enable-background:accumulate;font-family:Sans;-inkscape-font-specification:Sans"
       d="m 28.5,1017.3964 c -0.139417,0 -0.279173,0.055 -0.375,0.1563 l -2.375,2.2187 c -0.09383,0.089 -0.15117,0.2148 -0.15625,0.3438 l 0,17.3125 -2.40625,2.5625 c -0.213104,0.1805 -0.224251,0.5498 -0.02242,0.7429 0.201828,0.1931 0.570289,0.1655 0.741173,-0.055 l 2.5625,-2.7187 c 0.08262,-0.094 0.128214,-0.219 0.125,-0.3438 l 0,-17.2812 2.21875,-2.0626 c 0.298167,-0.2626 0.08455,-0.8607 -0.3125,-0.875 z"
       id="path3237"
       inkscape:connector-curvature="0"
       sodipodi:nodetypes="ccccccscccccc" />
    <path
       inkscape:export-ydpi="90"
       inkscape:export-xdpi="90"
       inkscape:export-filename="/home/hacko/Projects/git/mishkal (copy)/ar/images/fatha.png"
       style="fill:#000000;fill-opacity:0.07999998;stroke:none"
       inkscape:connector-curvature="0"
       d="m 47.640671,1028.3622 c 0,13.2548 -10.584288,24 -23.64067,24 -4.842304,0 -9.344572,-1.478 -13.092876,-4.0138 l 27.088176,-39.3307 c 5.849519,4.369 9.64537,11.4067 9.64537,19.3445 z m 0,0"
       id="reflec-8"
       sketch:type="MSShapeGroup" />
  </g>
</svg>
